<svg xmlns="http://www.w3.org/2000/svg" viewBox="0 0 85.04 84.79"><defs><style>.cls-1{opacity:0.99;}.cls-2{fill:#623a8e;}.cls-3{fill:#923c8f;}.cls-4{fill:#fff;}</style></defs><title>Conecta_1</title><g id="Capa_2" data-name="Capa 2"><g id="OIVI_CELLS" data-name="OIVI CELLS"><g id="_4" data-name="4"><g id="Concentro" class="cls-1"><path class="cls-2" d="M14.71,39.73c3.2-.32,7.61-.75,10.15-1.23-2.05-1.47-5.72-3.64-8.38-5.23-2.85-1.69-5.81-3.44-8-4.9S3.61,25,4.8,22.76a2.46,2.46,0,0,1,2.38-1.3,13.73,13.73,0,0,1,4.37,1.14c2.43.92,5.56,2.33,8.58,3.7,2.83,1.28,6.71,3,9.09,3.87-1-2.35-3.22-6.2-4.79-9s-3.23-5.75-4.32-8-2.53-5.23-.4-6.58a2.25,2.25,0,0,1,1.23-.37c1.71,0,3.36,2,4.62,3.57,1.61,2,3.59,4.72,5.5,7.38s4.38,6.11,6,8c.26-2.53.32-6.88.36-10s.08-6.65.27-9.19.44-5.85,3-6h.12c2.42,0,2.94,3.24,3.33,5.63s.73,5.81,1,9,.75,7.59,1.24,10.11c1.47-2,3.65-5.69,5.24-8.35,1.69-2.84,3.45-5.79,4.91-7.93s3.36-4.9,5.63-3.72,1,4.39.16,6.74S60,17.05,58.66,20.07c-1.28,2.82-3,6.69-3.88,9.06,2.36-1.05,6.22-3.2,9-4.77s5.77-3.22,8-4.31,5.24-2.53,6.6-.4-1.28,4.28-3.21,5.83S70.5,29.06,67.83,31s-6.12,4.37-8.06,6c2.54.26,6.91.32,10.07.35s6.68.09,9.22.28,5.87.43,6,3S81.82,43.63,79.4,44s-5.84.73-9.07,1.05-7.61.74-10.15,1.23c2,1.47,5.72,3.64,8.38,5.22,2.85,1.69,5.81,3.44,8,4.91s4.92,3.34,3.73,5.61-4.4,1-6.75.15-5.56-2.33-8.58-3.7c-2.83-1.27-6.71-3-9.09-3.87,1,2.36,3.22,6.21,4.79,9s3.23,5.75,4.32,8,2.53,5.23.4,6.58S61,76.94,59.48,75s-3.59-4.73-5.5-7.39-4.38-6.1-6-8c-.26,2.54-.32,6.89-.36,10s-.08,6.66-.27,9.2-.44,5.84-3,6-3.06-3.2-3.45-5.62-.73-5.82-1-9S39.1,62.53,38.61,60c-1.47,2-3.65,5.7-5.24,8.36-1.69,2.84-3.45,5.79-4.91,7.92S25.1,81.18,22.83,80s-1-4.39-.16-6.73,2.34-5.54,3.71-8.56c1.28-2.81,3-6.68,3.88-9-2.36,1-6.22,3.2-9,4.77s-5.77,3.22-8,4.31-5.24,2.52-6.6.4S7.87,60.86,9.8,59.3s4.74-3.57,7.41-5.48,6.12-4.36,8.06-6c-2.54-.26-6.91-.31-10.07-.35S8.52,47.36,6,47.17s-5.86-.44-6-3,3.22-3.05,5.64-3.44S11.48,40,14.71,39.73Z"/></g><g class="cls-1"><path class="cls-3" d="M.27,33.16a3.25,3.25,0,0,1,.94-1.65,4.58,4.58,0,0,1,2.94-1.1,22.48,22.48,0,0,1,3.46.14c2.5.26,5.78.8,9,1.33,2.13.35,4.84.8,7.09,1.09-1.53-1.67-3.45-3.63-4.95-5.17-2.25-2.29-4.57-4.67-6.21-6.57a21,21,0,0,1-2.09-2.74c-1.49-2.47-.62-4,0-4.75s2.14-1.71,4.72-.45a21.59,21.59,0,0,1,2.89,1.82c2,1.46,4.56,3.54,7,5.56,1.7,1.39,3.86,3.16,5.7,4.56-.48-2.16-1.14-4.74-1.65-6.77-.8-3.14-1.63-6.39-2.11-8.9a22,22,0,0,1-.43-3.48c0-2.9,1.51-3.82,2.44-4.11s2.72-.42,4.35,2A21.87,21.87,0,0,1,35,7.05c1.05,2.33,2.23,5.47,3.38,8.51.74,2,1.68,4.45,2.52,6.49.71-2.19,1.47-4.88,2.06-7,.87-3.06,1.76-6.21,2.58-8.56a20.59,20.59,0,0,1,1.33-3.14C48,1.4,49.3,1,50.28,1A3.2,3.2,0,0,1,51,1c.94.21,2.56,1,2.75,3.87a19.93,19.93,0,0,1-.14,3.44c-.26,2.5-.8,5.77-1.33,8.93-.35,2.12-.8,4.82-1.1,7.07,1.68-1.53,3.65-3.44,5.19-4.94,2.3-2.24,4.68-4.55,6.59-6.19a20.78,20.78,0,0,1,2.75-2.08c2.48-1.49,4-.61,4.76,0s1.72,2.13.45,4.71a21.61,21.61,0,0,1-1.82,2.87c-1.46,2-3.55,4.55-5.57,7-1.4,1.69-3.18,3.85-4.58,5.68,2.17-.48,4.76-1.14,6.79-1.65,3.15-.8,6.41-1.62,8.93-2.1a22.09,22.09,0,0,1,3.49-.43c2.9,0,3.82,1.51,4.12,2.43s.42,2.72-2,4.34a21.12,21.12,0,0,1-3.11,1.63c-2.34,1-5.48,2.23-8.53,3.37-2,.74-4.46,1.68-6.51,2.52,2.2.7,4.9,1.46,7,2.06,3.07.86,6.23,1.75,8.58,2.57a19.52,19.52,0,0,1,3.15,1.32c2.52,1.39,2.54,3.17,2.33,4.12s-1,2.55-3.88,2.74a20.07,20.07,0,0,1-3.45-.14c-2.51-.25-5.79-.8-9-1.32-2.12-.35-4.83-.8-7.09-1.1,1.53,1.68,3.45,3.64,5,5.18C67,59.28,69.36,61.65,71,63.55a20.78,20.78,0,0,1,2.08,2.75c1.49,2.47.62,4,0,4.74s-2.14,1.72-4.72.45a21.6,21.6,0,0,1-2.88-1.82c-2-1.45-4.57-3.54-7-5.55-1.69-1.39-3.86-3.16-5.7-4.56.48,2.16,1.14,4.74,1.66,6.76.8,3.15,1.62,6.4,2.1,8.91a20.74,20.74,0,0,1,.43,3.48c0,2.89-1.51,3.81-2.43,4.1s-2.73.42-4.36-2a21.45,21.45,0,0,1-1.63-3.1c-1.06-2.33-2.24-5.47-3.38-8.5-.74-2-1.68-4.45-2.53-6.5-.7,2.19-1.47,4.89-2.06,7-.86,3.06-1.76,6.22-2.58,8.56a21.81,21.81,0,0,1-1.32,3.14c-1.4,2.51-3.19,2.54-4.13,2.33s-2.57-1-2.76-3.87a21.15,21.15,0,0,1,.14-3.45c.26-2.5.8-5.77,1.33-8.93.35-2.11.8-4.82,1.1-7.07-1.68,1.53-3.65,3.45-5.19,4.95-2.3,2.23-4.68,4.55-6.59,6.19a21.71,21.71,0,0,1-2.75,2.08c-2.48,1.48-4,.61-4.76,0s-1.72-2.13-.45-4.71A20.85,20.85,0,0,1,14.39,66c1.46-2,3.55-4.54,5.57-7,1.39-1.69,3.17-3.85,4.57-5.68-2.17.48-4.75,1.13-6.79,1.65-3.15.79-6.41,1.62-8.93,2.09a20.86,20.86,0,0,1-3.48.43H5.21c-2.81,0-3.72-1.51-4-2.42s-.42-2.72,2-4.34A21.08,21.08,0,0,1,6.3,49.11c2.34-1,5.49-2.23,8.53-3.37,2-.73,4.46-1.67,6.52-2.52-2.2-.7-4.9-1.46-7-2-3.06-.86-6.23-1.75-8.58-2.57A21.53,21.53,0,0,1,2.6,37.28C.08,35.89.06,34.1.27,33.16Z"/></g><g id="Cuerpo_Exterior" data-name="Cuerpo Exterior"><ellipse class="cls-2" cx="42.52" cy="42.39" rx="36.72" ry="36.61"/></g><g id="Nucleos"><ellipse class="cls-4" cx="47.49" cy="56.53" rx="2.33" ry="2.32"/><ellipse class="cls-4" cx="28.08" cy="48.05" rx="4.66" ry="4.65"/><ellipse class="cls-4" cx="55.09" cy="37.53" rx="6.99" ry="6.97"/><ellipse class="cls-4" cx="36.59" cy="28.7" rx="2.33" ry="2.32"/></g></g></g></g></svg>