<svg xmlns="http://www.w3.org/2000/svg" viewBox="0 0 85.04 85.04"><defs><style>.cls-1{fill:#923c8f;}.cls-2{fill:#623a8e;}.cls-3{fill:#fff;}</style></defs><title>Es_1</title><g id="Capa_2" data-name="Capa 2"><g id="OIVI_CELLS" data-name="OIVI CELLS"><g id="_1" data-name="1"><g id="concentro_dos" data-name="concentro dos"><path class="cls-1" d="M83,51.56c-.73,3.23-3.32,6.9-11.57,6.06,5.41,6.29,3.88,10.51,1.64,12.95s-6.31,4.32-13-.53l0,0a21.82,21.82,0,0,1,.44,3.78c.07,4.81-2.81,7.44-5.53,8.29s-6.58.35-9.27-3.64a23.13,23.13,0,0,1-1.8-3.36v0c-2.25,6.41-5.62,8.09-8.55,8.09a9.1,9.1,0,0,1-1.84-.2c-3.24-.73-6.9-3.32-6.06-11.57-6.29,5.41-10.52,3.88-12.95,1.63s-4.33-6.3.53-13v0a22.9,22.9,0,0,1-3.78.45h-.17a8.06,8.06,0,0,1-8.12-5.53c-.85-2.71-.34-6.58,3.65-9.27A22.6,22.6,0,0,1,10,43.87h0C2.09,41.13,1.31,36.71,2,33.48s3.32-6.9,11.57-6.06C8.19,21.13,9.72,16.9,12,14.46s6.31-4.32,13,.54h0a21.72,21.72,0,0,1-.44-3.78c-.07-4.8,2.81-7.44,5.52-8.29s6.58-.34,9.28,3.65a22.09,22.09,0,0,1,1.79,3.35,0,0,0,0,0,0,0C43.9,2.09,48.33,1.31,51.56,2s6.9,3.32,6.06,11.56C63.91,8.19,68.13,9.72,70.57,12S74.9,18.27,70,25a0,0,0,0,0,0,0,21.61,21.61,0,0,1,3.78-.44c4.8-.09,7.43,2.81,8.29,5.52a7.82,7.82,0,0,1,.34,2.31,8.28,8.28,0,0,1-4,7,20.89,20.89,0,0,1-3.36,1.8h0C83,43.9,83.73,48.33,83,51.56Z"/></g><g id="Concentro"><path class="cls-2" d="M75.34,49.57l-.62.1a4.84,4.84,0,0,1,.44.3,22.23,22.23,0,0,1,3.11,2.44c3.46,3.36,3.29,7.27,2,9.8s-4.43,4.9-9.17,4A22,22,0,0,1,67.29,65l-.49-.18.27.55A22.49,22.49,0,0,1,68.5,69c1.34,4.64-.76,7.93-3.17,9.46s-6.29,2-9.93-1.15a24,24,0,0,1-2.65-2.84L52.41,74c0,.2,0,.38,0,.56a22.5,22.5,0,0,1-.55,3.84c-1.16,4.69-4.63,6.5-7.48,6.62H44c-2.79,0-6.19-1.55-7.69-6a23.25,23.25,0,0,1-.85-3.74c0-.2-.07-.41-.1-.62l-.3.44a23,23,0,0,1-2.44,3.11c-3.37,3.46-7.27,3.29-9.8,2s-4.91-4.42-4-9.17A24.37,24.37,0,0,1,20,67.28c.06-.16.12-.32.19-.48l-.55.27a22.49,22.49,0,0,1-3.57,1.43c-4.65,1.34-7.93-.76-9.46-3.17S4.56,59,7.74,55.4a24.25,24.25,0,0,1,2.85-2.65l.43-.34-.55,0a23.69,23.69,0,0,1-3.85-.55C1.93,50.65.13,47.19,0,44.34s1.37-6.46,5.94-8a22.58,22.58,0,0,1,3.74-.86l.62-.09-.44-.3a24.34,24.34,0,0,1-3.1-2.44c-3.46-3.37-3.29-7.27-2-9.8s4.42-4.91,9.18-4A23,23,0,0,1,17.75,20l.49.19L18,19.62a21.93,21.93,0,0,1-1.44-3.57c-1.33-4.63.77-7.92,3.18-9.45s6.29-2,9.93,1.14a25.14,25.14,0,0,1,2.65,2.85l.34.43,0-.56a22.65,22.65,0,0,1,.55-3.84C34.38,1.93,37.85.13,40.7,0s6.46,1.37,8,5.94a23.77,23.77,0,0,1,.85,3.74c0,.2.07.41.1.62l.3-.44a22.67,22.67,0,0,1,2.44-3.1c3.37-3.46,7.27-3.29,9.8-2s4.9,4.42,4,9.17a24,24,0,0,1-1.15,3.78c-.06.16-.12.32-.19.49l.55-.27A21.57,21.57,0,0,1,69,16.54c4.64-1.34,7.93.76,9.46,3.17s2,6.28-1.14,9.92a23.43,23.43,0,0,1-2.85,2.65l-.43.35.55,0a23.55,23.55,0,0,1,3.84.55c4.69,1.17,6.5,4.63,6.62,7.48s-1.37,6.47-5.94,8A23.66,23.66,0,0,1,75.34,49.57Z"/></g><g id="Nucleos"><circle class="cls-3" cx="42.52" cy="43.55" r="33.27"/><circle class="cls-1" cx="42.52" cy="43.55" r="12.94"/></g></g></g></g></svg>