<svg xmlns="http://www.w3.org/2000/svg" viewBox="0 0 85.04 85.04"><defs><style>.cls-1{fill:#923c8f;}.cls-2{fill:#623a8e;}.cls-3{opacity:0.99;}.cls-4{fill:#fff;}</style></defs><title>Experimenta</title><g id="Capa_2" data-name="Capa 2"><g id="OIVI_CELLS" data-name="OIVI CELLS"><g id="_3" data-name="3"><g id="concentro_dos" data-name="concentro dos"><path class="cls-1" d="M84.93,52c-.85,3.81-5.51,3.33-8,3.07s-5.87-.81-9.08-1.34c-1.67-.28-3.7-.62-5.59-.89,1.31,1.39,2.75,2.86,3.93,4.07,2.27,2.33,4.62,4.74,6.29,6.68s4.69,5.45,2.06,8.33-6.4.15-8.42-1.32S61.49,67,59,65c-1.34-1.1-3-2.44-4.51-3.65.43,1.8.92,3.73,1.32,5.31.81,3.19,1.65,6.49,2.13,9.06s1.35,7.13-2.4,8.31-5.69-3.14-6.73-5.45S46.55,73,45.39,69.89c-.58-1.54-1.28-3.4-2-5.12-.57,1.87-1.14,3.91-1.61,5.58-.88,3.1-1.78,6.3-2.62,8.7-.75,2.14-2.09,6-5.22,6a4.44,4.44,0,0,1-.93-.11c-3.82-.85-3.33-5.5-3.08-8s.82-5.87,1.35-9.08c.28-1.67.61-3.71.89-5.59-1.39,1.31-2.86,2.75-4.07,3.93-2.33,2.27-4.74,4.62-6.68,6.29s-5.45,4.7-8.33,2.06-.14-6.4,1.31-8.42S18,61.5,20.09,59c1.09-1.34,2.44-3,3.65-4.51-1.8.43-3.73.91-5.32,1.32-3.19.81-6.48,1.65-9,2.13s-7.14,1.35-8.32-2.4,3.13-5.69,5.45-6.73,5.56-2.26,8.65-3.42c1.53-.58,3.39-1.28,5.1-2-1.86-.56-3.9-1.14-5.56-1.61C11.59,40.94,8.39,40,6,39.2S-.74,36.85.11,33.05s5.5-3.33,8-3.07,5.87.81,9.08,1.34c1.67.28,3.7.62,5.59.9-1.31-1.4-2.75-2.87-3.93-4.08-2.27-2.33-4.61-4.74-6.29-6.68S7.87,16,10.51,13.13s6.39-.14,8.41,1.32,4.63,3.6,7.12,5.64c1.33,1.1,3,2.45,4.5,3.65-.42-1.8-.91-3.73-1.31-5.31-.81-3.19-1.65-6.49-2.13-9s-1.34-7.14,2.4-8.32,5.69,3.14,6.73,5.45,2.26,5.56,3.42,8.65c.58,1.53,1.28,3.39,2,5.11.57-1.87,1.14-3.91,1.61-5.57C44.09,11.59,45,8.39,45.84,6S48.19-.74,52,.11s3.33,5.5,3.07,8-.81,5.86-1.34,9.07c-.28,1.67-.61,3.7-.89,5.59,1.38-1.3,2.86-2.75,4.07-3.92,2.33-2.28,4.74-4.62,6.68-6.3S69,7.87,71.91,10.51s.15,6.39-1.32,8.42S67,23.55,65,26c-1.1,1.34-2.44,3-3.65,4.5,1.8-.41,3.72-.91,5.31-1.31,3.2-.81,6.49-1.65,9-2.13S82.8,25.76,84,29.51a4.33,4.33,0,0,1,.2,1.24c0,2.94-3.61,4.55-5.65,5.48C76.16,37.3,73,38.5,69.88,39.65c-1.52.58-3.39,1.28-5.11,2,1.87.57,3.91,1.14,5.57,1.61,3.1.88,6.31,1.79,8.7,2.62S85.79,48.19,84.93,52Z"/></g><g id="Concentro"><path class="cls-2" d="M45.28,82.23c-1.36,0-4.11-.49-5.59-4.15a21.31,21.31,0,0,1-.95-3.31c-.39-1.8-.76-4-1.12-6.32-1,2-2.11,4-3,5.54a20.53,20.53,0,0,1-2,2.9c-3,3.46-6.22,2.37-7.14,2s-3.85-2.12-3.23-6.65A20.21,20.21,0,0,1,23,68.76c.55-1.74,1.34-3.83,2.15-5.94-2,1.23-3.88,2.43-5.48,3.32a20.93,20.93,0,0,1-3.12,1.47c-4.3,1.5-6.54-1-7.13-1.86S7.17,62,10,58.39a21.45,21.45,0,0,1,2.42-2.51c1.35-1.23,3.09-2.66,4.87-4.09-2.28.09-4.53.17-6.36.13a20.42,20.42,0,0,1-3.47-.28C3,50.78,2.27,47.46,2.17,46.46s-.09-4.4,4.13-6.11a21.31,21.31,0,0,1,3.31-1c1.8-.39,4-.76,6.32-1.12-2-1.05-4-2.11-5.54-3.05a20.53,20.53,0,0,1-2.9-2c-3.46-3-2.37-6.22-2-7.13s2.12-3.86,6.65-3.24a20.21,20.21,0,0,1,3.44.84c1.74.55,3.82,1.34,5.94,2.15-1.23-1.94-2.43-3.88-3.32-5.48a20.93,20.93,0,0,1-1.47-3.12c-1.51-4.3,1.05-6.54,1.86-7.13s3.76-2.27,7.36.54a20.45,20.45,0,0,1,2.51,2.41c1.23,1.35,2.66,3.09,4.09,4.87-.09-2.28-.17-4.53-.13-6.36a19.38,19.38,0,0,1,.29-3.47c.85-4.48,4.17-5.15,5.17-5.25S42.32,2.74,44,7a20.82,20.82,0,0,1,.95,3.3c.39,1.8.76,4,1.12,6.32,1-2,2.11-4,3-5.54a20.53,20.53,0,0,1,2-2.9c3-3.45,6.22-2.37,7.14-2s3.85,2.12,3.23,6.65a20.21,20.21,0,0,1-.84,3.44c-.55,1.74-1.34,3.83-2.15,5.95,2-1.24,3.88-2.44,5.48-3.33a20.93,20.93,0,0,1,3.12-1.47c4.3-1.5,6.54,1.05,7.13,1.86s2.27,3.76-.53,7.36a21.45,21.45,0,0,1-2.42,2.51c-1.35,1.23-3.09,2.66-4.87,4.09,2.28-.09,4.53-.17,6.36-.13a19.29,19.29,0,0,1,3.47.29c4.48.85,5.16,4.18,5.26,5.17s.09,4.4-4.13,6.11a21.31,21.31,0,0,1-3.31,1c-1.8.39-4,.76-6.32,1.12,2,1.05,4,2.11,5.54,3.05a20.53,20.53,0,0,1,2.9,2c3.46,3,2.37,6.22,2,7.13h0c-.42.92-2.11,3.86-6.65,3.24a20.44,20.44,0,0,1-3.44-.84c-1.74-.55-3.82-1.34-5.94-2.15,1.23,1.95,2.43,3.88,3.32,5.48A20.93,20.93,0,0,1,67,67.81c1.51,4.3-1,6.54-1.86,7.13s-3.76,2.27-7.36-.53A21.45,21.45,0,0,1,55.22,72c-1.23-1.35-2.66-3.09-4.09-4.87.09,2.28.17,4.53.13,6.36A19.29,19.29,0,0,1,51,77c-.85,4.48-4.17,5.16-5.17,5.26Zm-5.6-32.51a6.23,6.23,0,0,1,3,.79,5.74,5.74,0,0,1,1.81-1.09A6,6,0,0,1,46.54,49a5.6,5.6,0,0,1,1-1.83,5.66,5.66,0,0,1,1.62-1.37,5.61,5.61,0,0,1,0-2.13,5.67,5.67,0,0,1,.7-2,5.88,5.88,0,0,1-1.47-3.89,5.6,5.6,0,0,1-1.83-1,5.53,5.53,0,0,1-1.37-1.62,5.61,5.61,0,0,1-2.13,0,5.67,5.67,0,0,1-2-.7,5.74,5.74,0,0,1-1.81,1.09,5.93,5.93,0,0,1-2.08.38,5.6,5.6,0,0,1-1,1.83,5.74,5.74,0,0,1-1.62,1.38,5.55,5.55,0,0,1,0,2.12,5.67,5.67,0,0,1-.7,2,5.88,5.88,0,0,1,1.47,3.89,5.6,5.6,0,0,1,1.83,1,5.66,5.66,0,0,1,1.37,1.62A6.12,6.12,0,0,1,39.68,49.72Z"/></g><g id="Nucleos" class="cls-3"><circle class="cls-4" cx="44.29" cy="43.74" r="29.47"/><circle class="cls-4" cx="24.57" cy="63.47" r="9.82"/><circle class="cls-4" cx="27" cy="31.4" r="20.07"/><circle class="cls-2" cx="44.29" cy="43.74" r="10.03"/><circle class="cls-4" cx="65.13" cy="22.9" r="9.82"/></g></g></g></g></svg>