<svg xmlns="http://www.w3.org/2000/svg" viewBox="0 0 85.04 85"><defs><style>.cls-1{fill:#923c8f;}.cls-2{fill:#62398e;}.cls-3{fill:#fff;}</style></defs><title>Habla</title><g id="Capa_2" data-name="Capa 2"><g id="OIVI_CELLS" data-name="OIVI CELLS"><g id="_5" data-name="5"><g id="Concentro"><path class="cls-1" d="M70.32,45.17c-3.19.32-7.6.75-10.14,1.23,2,1.47,5.71,3.65,8.38,5.24,10,5.92,13,7.92,11.68,10.54A2.28,2.28,0,0,1,78,63.49c-2.2,0-6.06-1.68-13.07-4.86-2.83-1.28-6.71-3-9.09-3.88,1,2.36,3.22,6.22,4.79,9s3.23,5.77,4.32,8,2.53,5.24.4,6.59C62.86,80,60.64,77.1,54,67.8c-1.84-2.58-4.38-6.12-6-8.06-.26,2.54-.32,6.9-.36,10.06-.14,11.44-.32,15.07-3.24,15.19h-.15c-2.77,0-3.23-3.4-4.34-14.72-.32-3.19-.75-7.6-1.24-10.13-1.47,2.05-3.65,5.71-5.24,8.37-5.92,10-7.92,13-10.54,11.67s-1.24-4.77,3.55-15.32c1.28-2.82,3.05-6.7,3.88-9.08-2.35,1.05-6.22,3.21-9,4.78C11.13,66.23,8.15,67.75,6.59,65.3S7.9,60.61,17.2,54c2.58-1.84,6.13-4.38,8.07-6-2.55-.26-6.9-.32-10.07-.35C3.76,47.41.13,47.23,0,44.32S3.2,41,14.72,39.83c3.19-.32,7.6-.75,10.14-1.24-2.05-1.46-5.71-3.64-8.38-5.23-10-5.92-13-7.92-11.68-10.54s4.78-1.23,15.33,3.55c2.83,1.28,6.71,3,9.09,3.88-1-2.36-3.22-6.23-4.79-9C18.78,11.13,17.26,8.15,19.71,6.59S24.4,7.9,31.06,17.2c1.84,2.57,4.38,6.12,6,8.06.26-2.55.32-6.9.36-10.07C37.6,3.75,37.78.13,40.71,0c2.48-.11,3,3.22,3.44,5.64s.72,5.84,1,9.07.76,7.6,1.24,10.14c1.47-2.05,3.65-5.71,5.24-8.38,5.92-9.95,7.92-13,10.54-11.67s1.24,4.77-3.55,15.32c-1.28,2.83-3,6.71-3.88,9.08,2.35-1,6.22-3.21,9-4.78s5.78-3.23,8-4.32,5.25-2.53,6.6-.4C80,22.17,77.14,24.39,67.84,31c-2.58,1.84-6.13,4.38-8.07,6.05,2.55.26,6.9.31,10.07.35,11.44.14,15.07.33,15.2,3.24.11,2.52-3.22,3-5.65,3.44S73.56,44.85,70.32,45.17Z"/></g><g id="Concentro-2" data-name="Concentro"><path class="cls-2" d="M77.2,50.24c-.77,3.45-4.93,3-6.93,2.81s-4.76-.66-7.36-1.09c-1-.16-2.13-.35-3.26-.52.79.83,1.6,1.65,2.3,2.37,1.83,1.88,3.74,3.83,5.09,5.41s4,4.68,1.66,7.29-5.75.17-7.38-1-3.74-2.92-5.76-4.57c-.79-.66-1.73-1.42-2.65-2.16.26,1.07.53,2.13.76,3.06.66,2.58,1.34,5.25,1.73,7.33s1.16,6.14-2.24,7.21S48,73.59,47.21,71.74s-1.84-4.51-2.78-7c-.33-.89-.72-1.93-1.12-2.95-.34,1.14-.66,2.3-.94,3.29-.71,2.5-1.44,5.1-2.12,7-.6,1.72-1.8,5.13-4.61,5.13a4.34,4.34,0,0,1-.86-.09c-3.46-.77-3-4.93-2.82-6.93s.66-4.75,1.09-7.36c.16-1,.35-2.12.53-3.26l-2.37,2.3c-1.89,1.84-3.84,3.74-5.42,5.1s-4.69,4-7.3,1.65-.17-5.75,1-7.36,2.91-3.76,4.57-5.77c.66-.8,1.42-1.72,2.16-2.65l-3.06.76c-2.59.66-5.26,1.34-7.34,1.73s-6.14,1.16-7.21-2.23,2.79-5.12,4.64-6,4.51-1.85,7-2.78l3-1.12c-1.14-.34-2.3-.67-3.29-.95-2.52-.7-5.11-1.44-7-2.11s-5.81-2-5-5.47,4.94-3,6.94-2.82,4.75.66,7.35,1.09l3.26.53c-.79-.83-1.6-1.66-2.29-2.37-1.84-1.88-3.74-3.84-5.11-5.41s-4-4.69-1.65-7.3,5.76-.16,7.37,1,3.76,2.91,5.77,4.57l2.66,2.16c-.26-1.07-.54-2.14-.77-3.07-.66-2.58-1.34-5.25-1.73-7.32s-1.15-6.14,2.24-7.21S37,11.4,37.83,13.25s1.84,4.51,2.78,7c.34.9.72,1.93,1.12,3,.33-1.15.66-2.3.94-3.29.71-2.51,1.44-5.11,2.12-7.05s2-5.81,5.48-5,3,4.93,2.81,6.93-.66,4.76-1.09,7.35c-.16,1-.35,2.12-.53,3.26.83-.79,1.66-1.6,2.38-2.3,1.88-1.83,3.83-3.74,5.41-5.09s4.69-4,7.3-1.65.16,5.74-1,7.36S62.63,27.45,61,29.47l-2.16,2.65,3.07-.77c2.57-.65,5.25-1.33,7.33-1.73s6.14-1.15,7.2,2.24-2.78,5.12-4.63,6-4.51,1.84-7,2.78c-.9.33-1.93.72-3,1.12,1.15.34,2.3.66,3.3.94,2.5.71,5.1,1.44,7,2.12S78,46.8,77.2,50.24Z"/></g><g id="Cuerpo_Exterior" data-name="Cuerpo Exterior"><ellipse class="cls-3" cx="42.52" cy="42.5" rx="29.18" ry="29.17"/></g><g id="Nucleos"><circle class="cls-1" cx="36.74" cy="25.85" r="2.73"/><circle class="cls-1" cx="59.53" cy="35.83" r="5.47"/><ellipse class="cls-1" cx="27.82" cy="48.21" rx="8.21" ry="8.2"/><circle class="cls-1" cx="49.54" cy="58.6" r="2.73"/></g></g></g></g></svg>