<?xml version="1.0" encoding="utf-8"?>
<!-- Generator: Adobe Illustrator 21.0.2, SVG Export Plug-In . SVG Version: 6.00 Build 0)  -->
<svg version="1.1" id="Capa_1" xmlns="http://www.w3.org/2000/svg" xmlns:xlink="http://www.w3.org/1999/xlink" x="0px" y="0px"
	 viewBox="0 0 400 300" style="enable-background:new 0 0 400 300;" xml:space="preserve">
<style type="text/css">
	.st0{fill:#FFDC0E;}
	.st1{fill:#F49807;}
	.st2{fill:url(#SVGID_1_);}
	.st3{fill:#FFDD00;}
	.st4{display:none;fill:none;}
	.st5{display:none;}
	.st6{display:inline;}
	.st7{fill:#34398D;}
	.st8{fill:url(#SVGID_2_);}
	.st9{opacity:0.3;fill:url(#SVGID_3_);enable-background:new    ;}
	.st10{fill:none;stroke:#FFFFFF;stroke-width:1.151;stroke-linecap:round;stroke-linejoin:round;}
	.st11{fill:#252550;}
	.st12{fill:#172077;}
	.st13{opacity:0.5;}
	.st14{opacity:0.25;}
	.st15{fill:#000066;}
	.st16{fill:url(#SVGID_4_);}
	.st17{fill:none;stroke:#000066;stroke-width:1.151;stroke-linecap:round;stroke-linejoin:round;}
</style>
<symbol  id="Isologo_x5F_2" viewBox="-161.5 -28.8 323 57.6">
	<g>
		<g>
			<path class="st0" d="M-49.5,13.2v-21h13v-5h-19v26H-49.5z"/>
			<path class="st0" d="M-1.5,13.2V-1.1c0-7.7-4.5-11.8-11.3-12c-6.7-0.2-12.7,3.7-12.7,12v14.3h6V-1.1c0-4.6,2.5-7,6.7-6.8
				c3.9,0.3,5.3,3,5.3,6.8v14.3H-1.5z"/>
			<path class="st0" d="M34.3-9.3c-2.7-2.6-6.1-3.8-9.9-3.8c-9.8,0-13.8,6.3-13.8,13.4C10.6,7,14.9,14,24.4,14c3.5,0,6.8-1.4,9.5-4
				l-3.6-3.6c-1.5,1.5-3.8,2.1-5.9,2.1c-5.9,0-8.2-4.5-8.1-8.3c0-3.8,2.1-8,8.1-8c2.1,0,4.8,0.9,6.3,2.5L34.3-9.3z"/>
			<path class="st0" d="M46.5-12.8v26h6v-26H46.5z"/>
			<path class="st0" d="M77.2,13.2C86.1,13.2,90,7.1,90,0.4s-3.8-13.2-12.8-13.2c-3.2,0-7.7,0-10.7,0v26H77.2z M72.5-7.8h4.7
				c5.6,0,7.2,4.5,7.2,8.2s-1.8,7.8-7.2,7.8h-4.7V-7.8z"/>
			<path class="st0" d="M126.5,13.2V-1.1c0-7.7-4.5-11.8-11.3-12c-6.7-0.2-12.7,3.7-12.7,12v14.3h6V-1.1c0-4.6,2.5-7,6.7-6.8
				c3.9,0.3,5.3,3,5.3,6.8v14.3H126.5z"/>
			<path class="st0" d="M155.7,7.2c-1.4,1.5-3.9,2.2-6,2.2c-2.5,0-4.6-1.1-4.6-2.8c0-2.4,2.2-2.8,5.6-3.1c5.1-0.4,9.9-2.4,9.9-8.4
				c0-5.8-5.3-8.3-10.9-8.3c-4.5,0-9.1,1.7-11.3,5.3l3.4,3.6c2-2.5,5.3-3.7,7.9-3.7c3.1,0,5.2,1.2,5.2,3.1c0,2.2-1.7,3.2-5.2,3.5
				c-5.5,0.5-10.3,1.9-10.3,8c0,5.1,4.9,7.9,10.2,7.9c4,0,7-0.9,9.6-4L155.7,7.2z"/>
		</g>
	</g>
	<g>
		<g>
			<path class="st1" d="M-158.5-15.8v-10h6v-3h-9v13H-158.5z"/>
		</g>
		<g>
			<path class="st1" d="M-65.5,16.2v10h-6v2h9v-12H-65.5z"/>
		</g>
		<g>
			<path class="st1" d="M-62.5-15.8v-12h-9v2h6v10H-62.5z"/>
		</g>
		<g>
			<path class="st1" d="M-161.5,16.2v12h9v-2h-6v-10H-161.5z"/>
		</g>
		<polygon class="st0" points="-161.5,16.2 -161.5,28.7 -158.5,26.3 -158.5,16.2 		"/>
		<g>
			<path class="st1" d="M-158.5-15.8v-10h6v-2h-9v12H-158.5z"/>
		</g>
		<polygon class="st1" points="-65.5,16.2 -65.5,26.2 -71.5,26.2 -71.5,28.2 -62.5,28.2 -62.5,16.2 		"/>
		<polygon class="st1" points="-62.5,-15.8 -62.5,-27.8 -71.5,-27.8 -71.5,-25.8 -65.5,-25.8 -65.5,-15.8 		"/>
		<polygon class="st0" points="-62.5,-15.8 -62.5,-27.8 -65.5,-25.3 -65.5,-15.8 		"/>
		<polygon class="st0" points="-158.5,-15.8 -158.5,-25.3 -161.5,-27.8 -161.5,-15.8 		"/>
		<polygon class="st0" points="-65.5,16.2 -65.5,26.3 -62.5,28.8 -62.5,16.2 		"/>
		<g>
			<g>
				<polygon class="st0" points="-116.8,0.4 -94.5,13.7 -94.5,-12.6 				"/>
			</g>
			<g>
				<linearGradient id="SVGID_1_" gradientUnits="userSpaceOnUse" x1="-152.5501" y1="0.55" x2="-111.3501" y2="0.55">
					<stop  offset="0" style="stop-color:#F29100;stop-opacity:0.5"/>
					<stop  offset="1" style="stop-color:#F29100;stop-opacity:0.3"/>
				</linearGradient>
				<polygon class="st2" points="-111.6,24 -137.6,0.5 -111.4,-22.9 -152.6,0.4 				"/>
			</g>
			<g>
				<polygon class="st3" points="-94.5,13.7 -116.8,0.4 -94.5,-12.6 				"/>
			</g>
			<g>
				<polygon class="st0" points="-94.5,13.7 -94.5,-12.6 -71.8,0.6 				"/>
			</g>
			<g>
				<polygon class="st1" points="-152.6,0.4 -137.6,0.6 -104.7,19.9 -111.6,24 				"/>
			</g>
			<g>
				<polygon class="st0" points="-152.6,0.4 -137.6,0.6 -103.9,-18.7 -111.4,-22.9 				"/>
			</g>
			<g>
				<polygon class="st1" points="-116.4,0.2 -94.5,0.2 -94.5,13.7 				"/>
			</g>
			<g>
				<polygon class="st1" points="-94.5,0.4 -71.8,0.6 -94.5,-12.6 				"/>
			</g>
			<g>
				<polygon class="st3" points="-111.6,24 -104.7,19.9 -152.6,0.4 				"/>
			</g>
			<g>
				<polygon class="st1" points="-111.4,-22.9 -103.9,-18.7 -152.6,0.4 				"/>
			</g>
		</g>
	</g>
	<g>
		<g>
			<path class="st1" d="M-49.4-7.8L-49.4-7.8h12.9v-5h-18.6l0,0L-49.4-7.8z"/>
			<path class="st1" d="M-13-7.9c3.9,0.3,5.5,3,5.5,6.8v14.3h6V-1.1c0-7.7-4.5-11.8-11.3-12"/>
			<path class="st1" d="M10.6,0.3C10.6,7,14.9,14,24.4,14c3.5,0,6.8-1.4,9.5-4l-3.6-3.6c-1.5,1.5-3.8,2.1-5.9,2.1
				c-5.9,0-8.2-4.5-8.1-8.3"/>
			<path class="st1" d="M46.5,0.2v13h6v-13H46.5z"/>
			<path class="st1" d="M77.2,13.2H66.5v-25.3c2,1.7,4,3.5,6,5.3v15h4.7c3.4,0,5.3-1.4,6.3-3.4c1.2,1.5,2.4,3,3.6,4.6
				C85,11.8,81.7,13.2,77.2,13.2z"/>
			<path class="st1" d="M115.2-7.9c3.9,0.3,5.3,3,5.3,6.8v14.3h6V-1.1c0-7.7-4.4-11.8-11.2-12"/>
			<path class="st1" d="M154.9-5c0,2.2-1.7,3.2-5.2,3.5c-5.5,0.5-10.3,1.9-10.3,8c0,5.1,4.9,7.9,10.2,7.9c4,0,7-0.9,9.6-4l-3.5-3.2
				c-1.4,1.5-3.9,2.2-6,2.2c-2.5,0-4.6-1.1-4.6-2.8c0-2.4,2.2-2.8,5.6-3.1c5.1-0.4,9.9-2.4,9.9-8.4"/>
		</g>
	</g>
	<rect x="-161.5" y="-28.8" class="st4" width="323" height="57"/>
</symbol>
<g id="LUCIDUS" class="st5">
	<g class="st6">
		
			<use xlink:href="#Isologo_x5F_2"  width="323" height="57.6" x="-161.5" y="-28.8" transform="matrix(0.9735 0 0 -0.9735 201.6235 145.6044)" style="overflow:visible;"/>
	</g>
</g>
<g id="Capa_4">
	<g>
		<g id="Isologotipo">
			<g id="ISOLOGO">
				<path class="st7" d="M55.6,175.5c2,4.5,4.6,8.7,7.7,12.5c5.7,3,12.1,4.6,18.5,4.6c4.8-4.8,8.6-10.4,11.5-16.5
					C80.7,176.5,68.2,176.3,55.6,175.5z"/>
				<path class="st7" d="M93.7,175.3c2.6-5.8,4.2-12,4.9-18.4c-16,0.5-32.1,0.2-48.1-0.7c0.6,6.4,2.2,12.6,4.7,18.4
					C68,175.4,80.9,175.6,93.7,175.3z"/>
				<path class="st7" d="M52.5,134.8c-1.9,6.7-2.6,13.6-2.1,20.5c16,0.9,32.1,1.2,48.2,0.7c0.5-6.9-0.1-13.8-1.9-20.4
					C82,135.9,67.2,135.7,52.5,134.8z"/>
				<path class="st7" d="M112.6,134.1c-2.1-6.9-5.5-13.4-9.9-19c-5.8-3.3-11.8-4.4-18.9-4.6c6.5,6.8,11.2,15.1,13.6,24.2
					C102.4,134.5,107.5,134.4,112.6,134.1z"/>
				<path class="st7" d="M114.9,156.2c-5.1,0.3-10.3,0.5-15.4,0.6c-0.6,6.3-2.2,12.5-4.8,18.3c5.2-0.1,10.4-0.4,15.6-0.7
					C112.8,168.7,114.4,162.5,114.9,156.2z"/>
				<path class="st7" d="M83,192.7c6.9-0.1,13.6-1.9,19.7-5.3c2.8-3.7,5.3-7.7,7.2-11.9c-5.2,0.3-10.4,0.5-15.6,0.6
					C91.4,182.2,87.6,187.8,83,192.7z"/>
				<path class="st7" d="M96.5,134.7c-2.7-9.1-7-15.8-14.1-23c-1.6,5.1-7.8,18.4-7.8,18.4s-13.6-10.3-16.3-8.9
					c-4.6,5.9-3.5,5.8-5.5,12.6"/>
				<path class="st7" d="M114.9,155.3c0.5-6.8-0.2-13.7-2.1-20.3c-5.1,0.3-10.1,0.5-15.2,0.6c1.8,6.6,2.4,13.5,1.9,20.4
					C104.7,155.8,109.8,155.6,114.9,155.3z"/>
				<path class="st7" d="M51.6,134.7c-2.3-0.1-4.7-0.3-7-0.5c-2.4,5.3-3.7,11.1-3.7,16.9c0,1.2,0.1,2.3,0.2,3.5
					c2.8,0.2,5.6,0.4,8.4,0.6C49,148.3,49.7,141.4,51.6,134.7z"/>
				<path class="st7" d="M61.4,187c-2.7-3.6-5-7.4-6.8-11.5c-2-0.1-4.1-0.3-6.1-0.4C51.9,179.9,56.3,184,61.4,187z"/>
				<path class="st7" d="M49.6,156.1c-2.8-0.2-5.6-0.4-8.4-0.6c0.7,6.6,3,13,6.7,18.6c2.1,0.2,4.2,0.3,6.4,0.4
					C51.7,168.7,50.1,162.5,49.6,156.1z"/>
				<path class="st7" d="M104.7,186.2c4.6-2.9,8.5-6.7,11.7-11.1l-5.5,0.4C109.2,179.2,107.1,182.8,104.7,186.2z"/>
				<path class="st7" d="M115.8,156.1c-0.5,6.3-2.1,12.5-4.5,18.3l5.7-0.4c3.7-5.5,6-11.9,6.7-18.5C121,155.8,118.4,156,115.8,156.1
					z"/>
				<path class="st7" d="M119.9,133.6c-3.3-7.1-8.6-13.2-15.3-17.4c3.9,5.4,6.9,11.4,8.8,17.8C115.7,133.9,117.8,133.8,119.9,133.6z
					"/>
				<path class="st7" d="M120.4,134.5c-2.2,0.2-4.4,0.3-6.6,0.4c1.8,6.6,2.5,13.5,2.1,20.3c2.6-0.2,5.3-0.3,7.9-0.5
					c0.1-1.2,0.2-2.3,0.2-3.5C123.9,145.5,122.7,139.8,120.4,134.5z"/>
				<path class="st7" d="M60.8,115.8C54,120,48.4,126.1,45,133.4c2.3,0.2,4.6,0.3,6.9,0.5C53.8,127.4,56.8,121.3,60.8,115.8z"/>
				
					<radialGradient id="SVGID_2_" cx="190.5122" cy="-16168.4619" r="75.1119" gradientTransform="matrix(0.77 0.64 1.49 -1.78 24073.959 -28667.1797)" gradientUnits="userSpaceOnUse">
					<stop  offset="0" style="stop-color:#FFFFFF;stop-opacity:0.5"/>
					<stop  offset="1" style="stop-color:#312782;stop-opacity:0.3"/>
				</radialGradient>
				<path class="st8" d="M123.8,151.2c0.4,22.9-17.8,41.8-40.7,42.2s-41.8-17.8-42.2-40.7c0-0.5,0-1,0-1.5
					c0-17.4,15.4-26.3,30.7-32.4c2.5-1,3.9-3.4,5.3-5.5s2,0.4,4.7,0.4c1.8,0,7.8,6.1,9.6,6.4c2.8,0.4,2.1-9,4.6-8.1
					C112.5,117.7,123.8,133.4,123.8,151.2z"/>
				
					<radialGradient id="SVGID_3_" cx="190.5122" cy="-16168.4619" r="75.1119" gradientTransform="matrix(0.77 0.64 1.49 -1.78 24073.959 -28667.1797)" gradientUnits="userSpaceOnUse">
					<stop  offset="0" style="stop-color:#FFFFFF;stop-opacity:0.5"/>
					<stop  offset="1" style="stop-color:#312782;stop-opacity:0.3"/>
				</radialGradient>
				<path class="st9" d="M123.8,151.2c0.4,22.9-17.8,41.8-40.7,42.2s-41.8-17.8-42.2-40.7c0-0.5,0-1,0-1.5
					c0-17.4,15.4-26.3,30.7-32.4c2.5-1,3.9-3.4,5.3-5.5s2,0.4,4.7,0.4c1.8,0,7.8,6.1,9.6,6.4c2.8,0.4,2.1-9,4.6-8.1
					C112.5,117.7,123.8,133.4,123.8,151.2z"/>
				<g id="_Grupo_">
					<polyline class="st10" points="79.1,151.5 84.7,148.3 82.4,150.7 84.6,149.4 					"/>
					<polyline class="st10" points="86.2,133.4 93.1,129.5 87.3,133.4 93,130.1 90.2,133.4 93.1,131.8 93.1,133.4 94.6,132.6 
						95.4,133.4 95.7,133.2 					"/>
					<polyline class="st10" points="70.1,110.4 70.8,109.9 70.1,112.4 75.7,109.1 70.1,113.9 79.4,108.5 70.1,115.2 82.6,108 
						70.1,116.1 84.6,107.8 70.1,118.3 88.3,107.8 70.1,118.8 89.2,107.8 					"/>
					<polyline class="st10" points="60.3,113.5 61.2,113 57.2,117 62.5,113.9 54.7,119.8 63.7,114.7 55.7,120.3 64.4,115.2 
						57.5,120.7 65.6,116 59.1,121 66.6,116.7 61.8,121.6 68.3,117.8 62.4,121.9 68.8,118.2 61.6,124.3 90.2,107.8 61,125.7 
						92.2,107.7 60.8,126.5 93.3,107.7 60.1,128.4 94.3,108.6 59.8,129.3 94.2,109.4 59.2,131 94.1,110.8 58.4,133.4 94,112.8 
						58.7,134.9 93.9,114.5 58.9,135.8 93.9,115.6 59.1,136.6 93.8,116.5 59.2,137 93.8,117.1 59.4,137.8 93.7,118 59.8,139.4 
						93.6,119.9 60,140.4 93.5,121 60.5,142.2 93.4,123.2 60.9,144 93.3,125.3 61.4,145.8 93.2,127.4 61.6,146.9 93.1,128.7 
						61.8,147.5 85.6,133.8 62.2,149.2 85.5,135.8 62.5,150.5 85.4,137.3 62.7,151.4 85.3,138.4 62.9,152.2 85.2,139.3 63.3,154 
						85.1,141.4 63.6,154.9 85,142.5 63.1,156.8 84.9,144.2 62.2,159.5 84.8,146.4 61.6,161.4 78.1,151.8 60.9,163.3 77,154.1 
						60.2,165.4 76.3,156.1 59.9,166.4 77,156.5 59,168.9 78.8,157.5 58.6,171 80.5,158.4 59,172.5 82,159.2 59.1,173.1 82.6,159.5 
						59.4,174.1 83.7,160.1 59.8,175.5 82.2,162.5 60.2,176.9 80,165.4 64,176.4 77.7,168.5 64.2,178.3 75,172 64.2,178.8 
						74.4,172.9 64.4,180.8 73.1,175.8 64.6,181.2 73.3,176.2 67.8,181.2 73.8,177.8 70.8,181.2 74.2,179.2 73.1,181.2 74.6,180.3 
						74.3,181.2 74.8,180.9 					"/>
				</g>
				<polyline class="st10" points="84.8,139.6 88.9,137.2 86.1,140.5 90.2,138.1 87.2,141.3 91.4,138.9 88,141.8 92,139.5 				"/>
				<polyline class="st10" points="76.1,183.8 76.3,183.6 76.1,185.4 77.3,184.7 76.1,186.8 78.2,185.6 76.1,187.8 78.8,186.2 
					76.1,189.3 79.8,187.1 76.1,190.5 80.5,187.9 76.3,192.5 81.9,189.3 77.5,192.5 82.3,189.7 80.9,192.4 83.5,190.9 82.9,192.4 
					84.3,191.6 83.9,192.4 84.6,192 				"/>
				<path class="st11" d="M139.5,161.8h-5.1v-2.2h12.7v2.2H142v13.3h-2.5V161.8L139.5,161.8z"/>
				<path class="st11" d="M167.8,175.1h-2.9l-4.7-5.4H157v5.4h-2.6v-15.5h7.3c2.8-0.2,5.3,1.8,5.5,4.6c0,0.2,0,0.3,0,0.5
					c0.1,2.5-1.7,4.6-4.2,4.9l4.6,5.2L167.8,175.1z M156.9,161.8v5.6h4.7c1.5,0.2,2.8-0.9,3-2.4c0-0.2,0-0.3,0-0.5
					c0-1.6-1.3-2.8-2.8-2.8c-0.1,0-0.1,0-0.2,0L156.9,161.8L156.9,161.8z"/>
				<path class="st11" d="M186,171.9h-8.4l-1.4,3.3h-2.7l7-15.6h2.7l7,15.6h-2.7L186,171.9z M181.8,162.2l-3.3,7.4h6.6L181.8,162.2z
					"/>
				<path class="st11" d="M203.1,159.6c4.1-0.2,7.6,2.9,7.8,7c0,0.2,0,0.5,0,0.7c0.3,4.1-2.7,7.6-6.8,7.9c-0.3,0-0.7,0-1,0h-5.9
					v-15.6L203.1,159.6L203.1,159.6z M199.7,172.8h3.4c3-0.2,5.3-2.7,5.1-5.7c-0.1-2.8-2.4-5-5.1-5.1h-3.4V172.8z"/>
				<path class="st11" d="M230.9,175.1h-11.5v-15.5h11.4v2.4h-8.9v4.2h8.6v2.3h-8.6v4.2h9V175.1L230.9,175.1z"/>
				<path class="st11" d="M249,163c-0.9-1.2-2.4-1.8-3.8-1.7c-2.1,0-3.6,0.9-3.6,2.4s1.7,1.9,3.8,2.2c3.2,0.4,6.3,1.4,6.3,4.8
					s-3.2,4.8-6.5,4.8c-3,0-5.3-0.9-6.7-3.5l1.9-1.2c1,1.7,2.9,2.7,4.9,2.6c1.9,0,3.9-0.6,3.9-2.6c0-1.7-1.8-2.3-4-2.6
					c-3.1-0.4-6-1.2-6-4.5s3.2-4.5,6-4.5c2.3-0.2,4.5,0.8,5.8,2.6L249,163z"/>
				<path class="st11" d="M274.9,167.4c0,4.2-2.6,8.1-8,8.1c-4.2,0.2-7.8-3-8-7.2c0-0.3,0-0.6,0-0.8c-0.2-4.3,3.1-8,7.4-8.2
					c0.2,0,0.4,0,0.6,0C272.3,159.3,274.9,163.2,274.9,167.4z M267,173.2c3.9,0,5.5-2.8,5.5-5.7s-1.6-5.9-5.5-5.9
					c-3.8-0.1-5.5,2.5-5.5,5.9c-0.2,3,2,5.5,5,5.7C266.6,173.2,266.8,173.2,267,173.2L267,173.2z"/>
				<path class="st11" d="M296.5,159.6v9.1c0,4.6-3,6.9-6.8,6.8c-3.5,0.1-6.4-2.6-6.5-6.1c0-0.2,0-0.5,0-0.7v-9.1h2.5v9.1
					c-0.3,2.2,1.3,4.2,3.5,4.4c0.2,0,0.3,0,0.5,0c2.5,0.1,4.3-1.5,4.3-4.4v-9.1H296.5L296.5,159.6z"/>
				<path class="st11" d="M319.2,175.1h-2.9l-4.7-5.4h-3.3v5.4h-2.5v-15.5h7.3c2.8-0.2,5.3,1.8,5.5,4.6c0,0.2,0,0.3,0,0.5
					c0.1,2.5-1.7,4.6-4.2,4.9l4.6,5.2L319.2,175.1z M308.2,161.8v5.6h4.7c1.5,0.2,2.8-0.9,3-2.4c0-0.2,0-0.3,0-0.5
					c0-1.6-1.3-2.8-2.8-2.8c-0.1,0-0.1,0-0.2,0L308.2,161.8L308.2,161.8z"/>
				<path class="st11" d="M340.5,173.1c-1.6,1.5-3.7,2.4-5.9,2.3c-4.2,0.3-7.9-2.8-8.2-7c0-0.3,0-0.6,0-1c-0.2-4.3,3.1-8,7.4-8.2
					c0.3,0,0.5,0,0.8,0c2.1,0,4.2,0.8,5.7,2.4l-1.7,1.6c-1.1-1-2.5-1.6-4-1.6c-3-0.2-5.6,2.2-5.7,5.2c0,0.2,0,0.4,0,0.6
					c-0.1,3,2.2,5.5,5.1,5.6c0.2,0,0.4,0,0.6,0c1.5,0,3-0.6,4.1-1.7L340.5,173.1z"/>
				<path class="st11" d="M360,175.1h-11.5v-15.5H360v2.4h-9v4.2h8.6v2.3H351v4.2h9V175.1L360,175.1z"/>
				<path class="st12" d="M136.5,149c0,0.1,0,0.3,0.2,0.3h0.1h2.5c0.5,0.4,0.8,1.1,0.7,1.8c0.1,0.7-0.2,1.3-0.7,1.8h-8.8
					c-0.5-0.4-0.8-1.1-0.7-1.8c-0.1-0.7,0.2-1.3,0.7-1.8h1.5c0.1,0,0.3,0,0.3-0.2V149v-13.7c-0.6,0.1-1.3,0.2-1.9,0.4
					c-1-0.3-1.4-2.7-0.7-3.5c2.7-0.7,5.5-1,8.2-1c4.9,0,9.5,1.2,9.5,6.5c0,5.4-5,7.6-8.9,7.6c-0.8-0.4-1-3.2,0-3.7
					c2.9,0,4.7-1.3,4.7-3.6s-1.3-3.3-5.4-3.3c-0.4,0-0.8,0-1.3,0v14L136.5,149z"/>
				<path class="st12" d="M164.9,145.6c-0.9,0-2.7,0-3.7,0.2l-1.4,3.2c-0.1,0.2,0,0.3,0.3,0.3h1.5c0.5,0.4,0.8,1.1,0.7,1.8
					c0.1,0.7-0.2,1.3-0.7,1.8h-7.3c-0.5-0.4-0.8-1.1-0.7-1.8c-0.1-0.7,0.2-1.3,0.7-1.8h1c0.2,0,0.4-0.1,0.4-0.3l7.4-16.5
					c0.1-0.7,0.7-1.2,1.4-1.2h0.7c0.7,0,1.4,0.5,1.6,1.2l7.7,16.5c0.1,0.2,0.3,0.3,0.5,0.3h1c0.5,0.4,0.8,1.1,0.7,1.8
					c0.1,0.7-0.2,1.3-0.7,1.8h-7.6c-0.5-0.4-0.8-1.1-0.7-1.8c-0.1-0.7,0.2-1.3,0.7-1.8h1.6c0.3,0,0.3-0.1,0.2-0.3l-1.4-3.1
					C167.5,145.7,166.2,145.6,164.9,145.6z M164.9,137.2L164.9,137.2c-0.5,1.3-1.6,3.8-2.1,5c0.5,0,1.5-0.1,2.1-0.1s1.6,0,2.2,0.1
					C166.4,140.8,165.4,138.5,164.9,137.2L164.9,137.2z"/>
				<path class="st12" d="M190.3,135.7c0-0.3,0-0.4-0.3-0.4h-2.2c-0.4,0-0.8,0.2-0.8,0.7v0.1c-0.1,0.8-0.1,1.6,0,2.5
					c-0.8,0.9-3.1,1-3.8,0c-0.1-1.7-0.1-3.3,0-5c0.1-1.5,0.5-1.8,1.7-1.8H200c1.2,0,1.6,0.3,1.7,1.8c0.1,1.7,0.1,3.3,0,5
					c-1.1,0.9-2.7,0.9-3.8,0c0.1-0.8,0.1-1.6,0-2.5c0-0.4-0.3-0.8-0.8-0.8l0,0h-2.2c-0.3,0-0.4,0.1-0.4,0.4V149c0,0.1,0,0.3,0.2,0.3
					h0.1h1.5c0.5,0.4,0.8,1.1,0.7,1.8c0.1,0.7-0.2,1.3-0.7,1.8h-7.9c-0.5-0.4-0.8-1.1-0.7-1.8c-0.1-0.7,0.2-1.3,0.7-1.8h1.5
					c0.1,0,0.3,0,0.3-0.2V149L190.3,135.7L190.3,135.7z"/>
				<path class="st12" d="M219.3,145.6c-0.9,0-2.7,0-3.7,0.2l-1.4,3.2c-0.1,0.2,0,0.3,0.3,0.3h1.5c0.5,0.4,0.8,1.1,0.7,1.8
					c0.1,0.7-0.2,1.3-0.7,1.8h-7.2c-0.5-0.4-0.8-1.1-0.7-1.8c-0.1-0.7,0.2-1.3,0.7-1.8h1c0.2,0,0.4-0.1,0.4-0.3l7.4-16.5
					c0.1-0.7,0.7-1.2,1.4-1.2h0.8c0.7,0,1.4,0.5,1.6,1.2l7.7,16.5c0.1,0.2,0.3,0.3,0.5,0.3h1c0.5,0.4,0.8,1.1,0.7,1.8
					c0.1,0.7-0.2,1.3-0.7,1.8h-7.7c-0.5-0.4-0.8-1.1-0.7-1.8c-0.1-0.7,0.2-1.3,0.7-1.8h1.6c0.2,0,0.3-0.1,0.2-0.3l-1.4-3.1
					C221.9,145.7,220.6,145.6,219.3,145.6z M219.3,137.2L219.3,137.2c-0.5,1.3-1.6,3.8-2.1,5c0.5,0,1.5-0.1,2.1-0.1s1.6,0,2.2,0.1
					C220.7,140.8,219.8,138.5,219.3,137.2L219.3,137.2z"/>
				<path class="st12" d="M253.6,137.4c0.1-0.5-0.1-1.1-0.4-1.5c-0.8-0.6-1.8-0.9-2.8-0.8c-4.8,0-7.7,2.5-7.7,7.1s3.2,7.2,7.5,7.2
					c1.2,0.2,2.4-0.1,3.5-0.7c0.4-0.4,0.7-1,0.5-1.5c0-0.3,0-0.7,0-1c0-0.2-0.1-0.3-0.2-0.3h-0.1H249c-0.5-0.4-0.8-1.1-0.7-1.8
					c-0.1-0.7,0.2-1.3,0.7-1.8h10.8c0.5,0.4,0.8,1.1,0.7,1.8c0.1,0.7-0.2,1.3-0.7,1.8h-1.1c-0.3,0-0.3,0-0.3,0.3s0,0.6,0,1
					c0,2.1,0,3.8-1.5,4.7c-2,1.1-4.3,1.6-6.7,1.4c-7.5,0-11.8-4.2-11.8-11c0-6.5,4.5-11,12.4-11c4.1,0,5.6,0.9,6.3,1.5
					c0.6,1.2,0.9,2.5,0.7,3.8c0,0.8,0,1.7-0.2,2.5c-1.2,0.9-2.9,0.9-4.1,0C253.5,138.8,253.6,137.9,253.6,137.4z"/>
				<path class="st12" d="M279.5,153.3c-7.3,0-11.1-4.8-11.1-11c-0.2-5.9,4.4-10.8,10.2-11c0.3,0,0.6,0,0.9,0
					c5.9-0.2,10.9,4.4,11.1,10.3c0,0.2,0,0.5,0,0.7C290.7,148.5,286.6,153.3,279.5,153.3z M279.5,135.1c-4.4,0-6.9,2.9-6.9,7.1
					c0,4.2,2.5,7.2,6.9,7.2s6.9-3.1,6.9-7.2c0.2-3.7-2.6-6.9-6.3-7.1C279.9,135.1,279.7,135.1,279.5,135.1z"/>
				<path class="st12" d="M317.2,135.6c0-0.1,0-0.3-0.2-0.3h-0.1h-2.1c-0.5-0.4-0.8-1.1-0.7-1.8c-0.1-0.7,0.2-1.3,0.7-1.8h7.9
					c0.5,0.4,0.8,1.1,0.7,1.8c0.1,0.7-0.2,1.3-0.7,1.8h-1.2c-0.1,0-0.3,0.1-0.3,0.2v0.1v15.3c0.1,0.6-0.1,1.3-0.7,1.6l-1.1,0.6
					c-0.7,0.3-1.6-0.1-2-0.7l-12.1-13.6h-0.1V149c0,0.1,0,0.3,0.2,0.3h0.1h2.1c0.5,0.4,0.8,1.1,0.7,1.8c0.1,0.7-0.2,1.3-0.7,1.8
					h-7.9c-0.5-0.4-0.8-1.1-0.7-1.8c-0.1-0.7,0.2-1.3,0.7-1.8h1.2c0.1,0,0.3-0.1,0.3-0.2V149v-15.4c-0.1-0.5,0.1-1.1,0.6-1.4
					l1.1-0.6c0.8-0.4,1.7-0.1,2.2,0.7l12.1,13.4h0.1L317.2,135.6L317.2,135.6z"/>
				<path class="st12" d="M334.4,135.6c0-0.1,0-0.3-0.2-0.3h-0.1h-1.5c-0.5-0.4-0.8-1.1-0.7-1.8c-0.1-0.7,0.2-1.3,0.7-1.8h7.9
					c0.5,0.4,0.8,1.1,0.7,1.8c0.1,0.7-0.2,1.3-0.7,1.8H339c-0.1,0-0.3,0-0.3,0.2v0.1V149c0,0.1,0,0.3,0.2,0.3h0.1h1.5
					c0.5,0.4,0.8,1.1,0.7,1.8c0.1,0.7-0.2,1.3-0.7,1.8h-7.9c-0.5-0.4-0.8-1.1-0.7-1.8c-0.1-0.7,0.2-1.3,0.7-1.8h1.5
					c0.1,0,0.3,0,0.3-0.2V149V135.6z"/>
				<path class="st12" d="M359.7,145.6c-0.9,0-2.7,0-3.7,0.2l-1.4,3.2c-0.1,0.2,0,0.3,0.3,0.3h1.5c0.5,0.4,0.8,1.1,0.7,1.8
					c0.1,0.7-0.2,1.3-0.7,1.8h-7.3c-0.5-0.4-0.8-1.1-0.7-1.8c-0.1-0.7,0.2-1.3,0.7-1.8h1c0.2,0,0.4-0.1,0.4-0.3l7.4-16.5
					c0.1-0.7,0.7-1.2,1.4-1.2h0.8c0.7,0,1.4,0.5,1.6,1.2l7.7,16.5c0.1,0.2,0.3,0.3,0.5,0.3h1c0.5,0.4,0.8,1.1,0.7,1.8
					c0.1,0.7-0.2,1.3-0.7,1.8h-7.7c-0.5-0.4-0.8-1.1-0.7-1.8c-0.1-0.7,0.2-1.3,0.7-1.8h1.6c0.2,0,0.3-0.1,0.2-0.3l-1.4-3.1
					C362.3,145.7,361,145.6,359.7,145.6z M359.7,137.2h-0.1c-0.5,1.3-1.5,3.8-2,5c0.5,0,1.5-0.1,2.1-0.1s1.6,0,2.2,0.1
					C361.2,140.8,360.2,138.5,359.7,137.2L359.7,137.2z"/>
				<g class="st13">
					<g class="st14">
						<polygon class="st15" points="108,177.4 96.9,174.4 93.9,163.2 102,155.1 113.2,158.1 116.2,169.2 						"/>
					</g>
					
						<linearGradient id="SVGID_4_" gradientUnits="userSpaceOnUse" x1="-296.3515" y1="739.4827" x2="-273.2049" y2="739.4827" gradientTransform="matrix(0.7071 -0.7071 0.7071 0.7071 -217.2113 -558.4651)">
						<stop  offset="0" style="stop-color:#FFFFFF;stop-opacity:0.5"/>
						<stop  offset="1" style="stop-color:#FFFFFF;stop-opacity:0.4"/>
					</linearGradient>
					<polygon class="st16" points="107.3,177 96.1,174 93.1,162.8 101.3,154.6 112.5,157.6 115.5,168.8 					"/>
				</g>
			</g>
			<g class="st14">
				<polyline class="st17" points="79.9,152 85.4,148.8 83.1,151.1 85.3,149.8 				"/>
				<polyline class="st17" points="86.9,133.9 93.8,129.9 88,133.9 93.8,130.6 90.9,133.9 93.8,132.2 93.9,133.9 95.3,133 
					96.2,133.8 96.4,133.7 				"/>
				<polyline class="st17" points="70.8,110.8 71.6,110.3 70.8,112.8 76.4,109.6 70.8,114.3 80.1,109 70.8,115.7 83.3,108.5 
					70.8,116.6 85.3,108.2 70.8,118.7 89.1,108.2 70.8,119.2 89.9,108.2 				"/>
				<polyline class="st17" points="61.1,114 62,113.5 58,117.4 63.3,114.3 55.4,120.3 64.4,115.1 56.4,120.7 65.2,115.6 58.3,121.1 
					66.3,116.4 59.8,121.4 67.3,117.1 62.5,122 69,118.3 63.2,122.3 69.5,118.6 62.3,124.7 90.9,108.2 61.8,126.2 92.9,108.2 
					61.5,127 94,108.2 60.8,128.8 95,109.1 60.5,129.7 95,109.8 59.9,131.4 94.9,111.2 59.1,133.8 94.8,113.2 59.4,135.3 94.7,115 
					59.7,136.2 94.6,116 59.9,137 94.5,117 60,137.4 94.5,117.5 60.1,138.2 94.5,118.4 60.5,139.9 94.3,120.4 60.8,140.8 
					94.3,121.5 61.2,142.6 94.2,123.6 61.7,144.5 94,125.8 62.1,146.2 93.9,127.8 62.4,147.3 93.8,129.1 62.5,148 86.3,134.2 
					62.9,149.7 86.2,136.2 63.2,150.9 86.1,137.7 63.4,151.9 86,138.8 63.6,152.6 86,139.7 64.1,154.4 85.8,141.9 64.3,155.3 
					85.8,142.9 63.8,157.3 85.7,144.7 62.9,159.9 85.5,146.9 62.3,161.8 78.8,152.3 61.6,163.8 77.7,154.5 60.9,165.8 77,156.6 
					60.6,166.8 77.7,157 59.8,169.4 79.6,158 59.3,171.5 81.2,158.8 59.7,173 82.8,159.7 59.9,173.5 83.3,159.9 60.2,174.6 
					84.4,160.5 60.5,175.9 82.9,163 60.9,177.3 80.7,165.9 64.7,176.9 78.4,169 64.9,178.8 75.7,172.5 64.9,179.2 75.1,173.3 
					65.1,181.3 73.9,176.2 65.4,181.7 74,176.7 68.5,181.6 74.5,178.2 71.6,181.6 75,179.7 73.9,181.6 75.3,180.8 75,181.6 
					75.5,181.3 				"/>
				<polyline class="st17" points="85.5,140.1 89.7,137.7 86.8,141 91,138.6 88,141.7 92.1,139.3 88.8,142.2 92.7,139.9 				"/>
				<polyline class="st17" points="76.8,184.2 77,184.1 76.8,185.8 78,185.1 76.8,187.3 78.9,186 76.8,188.2 79.6,186.6 76.8,189.7 
					80.5,187.6 76.8,190.9 81.3,188.4 77.1,192.9 82.6,189.7 78.2,192.9 83,190.1 81.6,192.9 84.3,191.4 83.6,192.9 85,192.1 
					84.7,192.9 85.4,192.5 				"/>
			</g>
			<g id="_Grupo_2">
				<polyline class="st10" points="79.1,151.5 84.7,148.3 82.4,150.7 84.6,149.4 				"/>
				<polyline class="st10" points="86.2,133.4 93.1,129.5 87.3,133.4 93,130.1 90.2,133.4 93.1,131.8 93.1,133.4 94.6,132.6 
					95.4,133.4 95.7,133.2 				"/>
				<polyline class="st10" points="70.1,110.4 70.8,109.9 70.1,112.4 75.7,109.1 70.1,113.9 79.4,108.5 70.1,115.2 82.6,108 
					70.1,116.1 84.6,107.8 70.1,118.3 88.3,107.8 70.1,118.8 89.2,107.8 				"/>
				<polyline class="st10" points="60.3,113.5 61.2,113 57.2,117 62.5,113.9 54.7,119.8 63.7,114.7 55.7,120.3 64.4,115.2 
					57.5,120.7 65.6,116 59.1,121 66.6,116.7 61.8,121.6 68.3,117.8 62.4,121.9 68.8,118.2 61.6,124.3 90.2,107.8 61,125.7 
					92.2,107.7 60.8,126.5 93.3,107.7 60.1,128.4 94.3,108.6 59.8,129.3 94.2,109.4 59.2,131 94.1,110.8 58.4,133.4 94,112.8 
					58.7,134.9 93.9,114.5 58.9,135.8 93.9,115.6 59.1,136.6 93.8,116.5 59.2,137 93.8,117.1 59.4,137.8 93.7,118 59.8,139.4 
					93.6,119.9 60,140.4 93.5,121 60.5,142.2 93.4,123.2 60.9,144 93.3,125.3 61.4,145.8 93.2,127.4 61.6,146.9 93.1,128.7 
					61.8,147.5 85.6,133.8 62.2,149.2 85.5,135.8 62.5,150.5 85.4,137.3 62.7,151.4 85.3,138.4 62.9,152.2 85.2,139.3 63.3,154 
					85.1,141.4 63.6,154.9 85,142.5 63.1,156.8 84.9,144.2 62.2,159.5 84.8,146.4 61.6,161.4 78.1,151.8 60.9,163.3 77,154.1 
					60.2,165.4 76.3,156.1 59.9,166.4 77,156.5 59,168.9 78.8,157.5 58.6,171 80.5,158.4 59,172.5 82,159.2 59.1,173.1 82.6,159.5 
					59.4,174.1 83.7,160.1 59.8,175.5 82.2,162.5 60.2,176.9 80,165.4 64,176.4 77.7,168.5 64.2,178.3 75,172 64.2,178.8 
					74.4,172.9 64.4,180.8 73.1,175.8 64.6,181.2 73.3,176.2 67.8,181.2 73.8,177.8 70.8,181.2 74.2,179.2 73.1,181.2 74.6,180.3 
					74.3,181.2 74.8,180.9 				"/>
			</g>
			<polyline class="st10" points="84.8,139.6 88.9,137.2 86.1,140.5 90.2,138.1 87.2,141.3 91.4,138.9 88,141.8 92,139.5 			"/>
			<polyline class="st10" points="76.1,183.8 76.3,183.6 76.1,185.4 77.3,184.7 76.1,186.8 78.2,185.6 76.1,187.8 78.8,186.2 
				76.1,189.3 79.8,187.1 76.1,190.5 80.5,187.9 76.3,192.5 81.9,189.3 77.5,192.5 82.3,189.7 80.9,192.4 83.5,190.9 82.9,192.4 
				84.3,191.6 83.9,192.4 84.6,192 			"/>
		</g>
	</g>
</g>
</svg>
