<?xml version="1.0" encoding="utf-8"?>
<!-- Generator: Adobe Illustrator 22.0.1, SVG Export Plug-In . SVG Version: 6.00 Build 0)  -->
<svg version="1.1" id="Capa_1" xmlns="http://www.w3.org/2000/svg" xmlns:xlink="http://www.w3.org/1999/xlink" x="0px" y="0px"
	 viewBox="0 0 75 75" style="enable-background:new 0 0 75 75;" xml:space="preserve">
<style type="text/css">
	.st0{fill:#663399;}
	.st1{fill:#FFFFFF;}
</style>
<circle class="st0" cx="37.5" cy="37.4" r="37.5"/>
<title>behance</title>
<g id="Behance">
	<path class="st1" d="M34.3,34.3c0,0,4.8-0.4,4.8-6S35.2,20,30.3,20H13.9v31.4h16.3c0,0,10,0.3,10-9.3
		C40.2,42.1,40.7,34.3,34.3,34.3z M29.1,25.6h1.2c0,0,2.2,0,2.2,3.3s-1.3,3.7-2.8,3.7h-8.6v-7L29.1,25.6z M29.8,45.8h-8.7v-8.4h9.1
		c0,0,3.3,0,3.3,4.3C33.6,45.4,31.1,45.8,29.8,45.8L29.8,45.8z"/>
	<path class="st1" d="M53.5,28c-12.1,0-12.1,12-12.1,12s-0.8,12,12.1,12c0,0,10.7,0.6,10.7-8.3h-5.5c0,0,0.2,3.4-5,3.4
		c0,0-5.5,0.4-5.5-5.5h16.2C64.4,41.6,66.2,28,53.5,28z M48.1,37.4c0,0,0.7-4.8,5.5-4.8s4.8,4.8,4.8,4.8H48.1z"/>
	<rect x="46.8" y="21.8" class="st1" width="13" height="3.9"/>
</g>
</svg>
