<svg xmlns="http://www.w3.org/2000/svg" viewBox="0 0 85.04 84.82"><defs><style>.cls-1{fill:#623a8e;}.cls-2{fill:#923c8f;}.cls-3{fill:#fff;}</style></defs><title>Diseña</title><g id="Capa_2" data-name="Capa 2"><g id="OIVI_CELLS" data-name="OIVI CELLS"><g id="_2" data-name="2"><g id="Cuerpo_Exterior" data-name="Cuerpo Exterior"><ellipse class="cls-1" cx="42.52" cy="42.41" rx="32.54" ry="32.45"/></g><g id="concentro_dos" data-name="concentro dos"><path class="cls-2" d="M84.91,51.85c-1,4.45-6.23,3.92-8.75,3.66s-5.79-.8-9-1.33l-3-.5,2.15,2.22c2.24,2.28,4.55,4.64,6.21,6.56s5.09,5.89,2,9.25-7.33.29-9.36-1.18S60.6,67,58.14,65c-.75-.61-1.61-1.32-2.5-2l.72,2.81c.8,3.13,1.62,6.37,2.1,8.91s1.45,7.69-2.93,9.07S49,80.28,47.93,78s-2.24-5.47-3.38-8.5c-.31-.83-.67-1.76-1-2.72-.31,1.09-.61,2.16-.88,3.1-.86,3-1.75,6.2-2.58,8.56-.75,2.15-2.25,6.42-5.87,6.42a5.72,5.72,0,0,1-1.13-.12c-4.45-1-3.92-6.23-3.65-8.74s.79-5.77,1.32-8.92c.15-.93.32-2,.49-3L29,66.15c-2.3,2.23-4.67,4.53-6.59,6.18s-5.9,5.07-9.27,2S12.86,67,14.33,65s3.55-4.56,5.55-7l2.05-2.49-2.82.7c-3.14.8-6.39,1.62-8.92,2.09s-7.73,1.46-9.11-2.91,3.47-6.54,5.8-7.58,5.49-2.23,8.53-3.38l2.71-1C17,43.09,16,42.79,15,42.52c-3-.85-6.2-1.74-8.56-2.56S-.86,37.4.13,33s6.23-3.91,8.75-3.65,5.79.8,8.95,1.32l3,.5-2.15-2.21c-2.24-2.29-4.55-4.65-6.21-6.57s-5.08-5.89-2-9.25,7.31-.29,9.35,1.18,4.56,3.54,7,5.55c.76.62,1.62,1.33,2.51,2-.25-1-.5-2-.72-2.82-.8-3.13-1.62-6.37-2.1-8.9s-1.45-7.7,2.93-9.08,6.56,3.46,7.6,5.78,2.24,5.47,3.38,8.5c.31.83.66,1.76,1,2.72.31-1.08.62-2.16.88-3.1.87-3.05,1.76-6.19,2.58-8.56S47.53-.87,52,.13s3.92,6.22,3.65,8.73-.8,5.77-1.32,8.92c-.16.93-.33,2-.5,3L56,18.67c2.3-2.23,4.67-4.53,6.59-6.18s5.9-5.07,9.27-2,.29,7.3-1.18,9.34-3.55,4.55-5.56,7l-2,2.5,2.82-.71c3.13-.8,6.39-1.62,8.92-2.09s7.73-1.45,9.11,2.91a5.11,5.11,0,0,1,.23,1.49c0,3.39-4,5.18-6,6.09-2.35,1.06-5.49,2.24-8.53,3.38l-2.72,1L70,42.3c3,.86,6.21,1.74,8.57,2.56S85.9,47.42,84.91,51.85Z"/></g><g id="Concentro"><path class="cls-1" d="M74.33,47.29c-1.81.29-4,.53-6.33.76,1.94,1.14,3.83,2.3,5.32,3.32,1.86,1.26,6.77,4.61,4.31,9.33s-8,2.6-10.13,1.8c-1.7-.64-3.73-1.53-5.78-2.45,1.11,2,2.2,4,3,5.61,1,2,3.52,7.27-1,10.11S55.54,74,54.13,72.3c-1.15-1.41-2.47-3.2-3.79-5,0,2.26-.08,4.49-.22,6.3-.17,2.22-.6,8.09-5.91,8.33h-.3c-5,0-5.94-5.62-6.28-7.75-.29-1.8-.53-4-.76-6.31-1.16,1.93-2.31,3.82-3.33,5.31-1.26,1.84-4.62,6.75-9.35,4.29s-2.61-8-1.81-10.1c.64-1.69,1.53-3.72,2.46-5.77-2,1.11-4,2.19-5.62,3-2,1-7.3,3.51-10.14-1s1.75-8.2,3.47-9.6c1.41-1.14,3.21-2.46,5.06-3.78-2.27,0-4.5-.08-6.31-.21-2.23-.17-8.13-.6-8.36-5.9s5.58-6.21,7.77-6.56c1.81-.3,4-.53,6.33-.76-1.94-1.15-3.83-2.31-5.32-3.33C9.86,32.19,5,28.84,7.41,24.13s8-2.61,10.13-1.81c1.7.64,3.72,1.54,5.78,2.46-1.11-2-2.2-4-3-5.62-1-2-3.52-7.27,1-10.11s8.21,1.74,9.62,3.47c1.14,1.41,2.47,3.2,3.79,5.05,0-2.27.08-4.5.22-6.31.16-2.21.6-8.09,5.91-8.32s6.22,5.56,6.58,7.74c.29,1.8.52,4,.76,6.32,1.15-1.93,2.31-3.82,3.33-5.31,1.26-1.85,4.63-6.76,9.35-4.3s2.61,8,1.81,10.11c-.64,1.69-1.53,3.71-2.46,5.76,2-1.11,4-2.19,5.62-3,2-1,7.3-3.51,10.14,1s-1.75,8.2-3.48,9.6c-1.4,1.14-3.21,2.46-5,3.78,2.27,0,4.5.08,6.31.21,2.23.17,8.13.61,8.35,5.9S76.52,46.93,74.33,47.29Z"/></g><g id="Nucleos"><ellipse class="cls-3" cx="42.52" cy="43.42" rx="28.95" ry="28.88"/><ellipse class="cls-2" cx="42.52" cy="43.42" rx="9.86" ry="9.83"/></g></g></g></g></svg>