<svg xmlns="http://www.w3.org/2000/svg" viewBox="0 0 99.22 99.22"><defs><style>.cls-1{fill:#fff;}.cls-2{fill:#913b8e;}</style></defs><title>f</title><g id="Capa_2" data-name="Capa 2"><g id="Capa_1-2" data-name="Capa 1"><g id="Capa_28" data-name="Capa 28"><path class="cls-1" d="M63.26,21.31v9.46h-7.1c-3.55,0-4.36,2.36-4.36,4.84v4.76H62.72l-1.46,9.5H51.78V78.5H42.36V49.87H36.54v-9.5h5.82V34.63c0-7.74,2.32-13.32,10.8-13.32Z" transform="translate(-0.25 -0.25)"/><path class="cls-2" d="M49.87.25a49.61,49.61,0,0,1,0,99.22h0a49.61,49.61,0,0,1,0-99.22ZM63.26,30.77V21.31H53.16c-8.48,0-10.8,5.58-10.8,13.32v5.74H36.54v9.5h5.82V78.5h9.42V49.87h9.48l1.46-9.5H51.8V35.61c0-2.48.81-4.84,4.36-4.84Z" transform="translate(-0.25 -0.25)"/></g></g></g></svg>