<svg xmlns="http://www.w3.org/2000/svg" viewBox="0 0 99.21 99.21"><defs><style>.cls-1{fill:#913b8e;}.cls-2{fill:#fff;}</style></defs><title>inst</title><g id="Capa_2" data-name="Capa 2"><g id="Capa_28" data-name="Capa 28"><circle class="cls-1" cx="49.61" cy="49.61" r="49.61"/><path class="cls-2" d="M78,49.61c0,5.7,0,9.54-.13,11.66-.27,5.17-1.73,9.15-4.64,11.94s-6.77,4.37-11.94,4.64c-2.12.13-6.1.13-11.66.13s-9.55,0-11.67-.13c-5.17-.27-9.15-1.73-11.93-4.64s-4.38-6.77-4.64-11.94c-.14-2.12-.14-6.1-.14-11.66s0-9.55.14-11.67C21.63,32.77,23.09,28.79,26,26s6.76-4.38,11.93-4.64c2.12-.14,6.1-.14,11.67-.14s9.54,0,11.66.14c5.17.26,9.15,1.72,11.94,4.64s4.37,6.76,4.64,11.93C77.85,40.06,78,43.91,78,49.61ZM52.39,26.27H43c-.93,0-2.12,0-3.58.13a16.62,16.62,0,0,0-3.85.4,11.09,11.09,0,0,0-2.65.66,12.77,12.77,0,0,0-3.31,2.13,9.35,9.35,0,0,0-2.13,3.31,11.09,11.09,0,0,0-.66,2.65c-.13,1.06-.26,2.26-.4,3.85s-.13,2.65-.13,3.58V56.24c0,.92,0,2.12.13,3.58a16.59,16.59,0,0,0,.4,3.84c.27,1.06.4,2,.66,2.65a12.65,12.65,0,0,0,2.13,3.32,9.47,9.47,0,0,0,3.31,2.12,11.09,11.09,0,0,0,2.65.66c1.06.13,2.26.27,3.85.4s2.65.13,3.58.13H56.24c.92,0,2.12,0,3.58-.13a16.06,16.06,0,0,0,3.84-.4,11.09,11.09,0,0,0,2.65-.66,12.87,12.87,0,0,0,3.32-2.12,9.6,9.6,0,0,0,2.12-3.32,11.09,11.09,0,0,0,.66-2.65c.13-1.06.27-2.25.4-3.84s.13-2.66.13-3.58V43c0-.93,0-2.12-.13-3.58a16.09,16.09,0,0,0-.4-3.85,11.09,11.09,0,0,0-.66-2.65,13,13,0,0,0-2.12-3.31,9.48,9.48,0,0,0-3.32-2.13,11.09,11.09,0,0,0-2.65-.66c-1.06-.13-2.25-.26-3.84-.4s-2.66-.13-3.58-.13Zm7.43,13a14.14,14.14,0,0,1,4.24,10.35A14.34,14.34,0,0,1,59.82,60a14.14,14.14,0,0,1-10.35,4.24A14.34,14.34,0,0,1,39.13,60a14.12,14.12,0,0,1-4.24-10.34,14.36,14.36,0,0,1,4.24-10.35A14.12,14.12,0,0,1,49.47,35,13.66,13.66,0,0,1,59.82,39.26Zm-3.58,17A9.15,9.15,0,0,0,59,49.61a9.47,9.47,0,0,0-2.78-6.77,9.55,9.55,0,0,0-16.31,6.77,8.74,8.74,0,0,0,2.78,6.63,9.62,9.62,0,0,0,13.53,0ZM67.11,32a3.22,3.22,0,1,1-2.39-1.06A3.35,3.35,0,0,1,67.11,32Z"/></g></g></svg>