<?xml version="1.0" encoding="utf-8"?>
<!-- Generator: Adobe Illustrator 22.0.1, SVG Export Plug-In . SVG Version: 6.00 Build 0)  -->
<svg version="1.1" id="Capa_1" xmlns="http://www.w3.org/2000/svg" xmlns:xlink="http://www.w3.org/1999/xlink" x="0px" y="0px"
	 viewBox="0 0 400 300" style="enable-background:new 0 0 400 300;" xml:space="preserve">
<title>lp</title>
<g id="Capa_2_1_">
	<g id="las_pelotas">
		<path d="M241.6,150c0-5.4,0-10.8,0-16.3c0-0.5,0.1-1,0.1-1.5c0-0.4,0.1-0.8,0.2-1.2c0-0.3,0.1-0.7,0.2-1c0.1-0.7,0.3-1.4,0.5-2
			c0.1-0.2,0.1-0.4,0.2-0.6c0.3-0.6,0.6-1.3,1-1.8c0.4-0.6,0.8-1.2,1.3-1.7c0.2-0.4,0.7-0.7,1-1c0.5-0.4,1-0.8,1.5-1.1
			c0.3-0.2,0.6-0.3,0.9-0.5c0.4-0.2,0.7-0.3,1.1-0.5c0.3-0.1,0.6-0.2,0.9-0.3s0.6-0.1,0.9-0.3s0.8-0.1,1.2-0.3l0,0
			c0.4,0,0.8-0.1,1.3-0.1s0.8-0.1,1.1-0.1s0.8,0,1.2,0c0.2,0,0.5,0.1,0.7,0.1s0.5,0,0.7,0c0.4,0.1,0.8,0.1,1.2,0.2
			c0.6,0.1,1.2,0.3,1.8,0.5c0.8,0.3,1.6,0.6,2.4,1c1,0.5,1.9,1.2,2.7,2c0.6,0.7,1.1,1.4,1.6,2.2c0.2,0.3,0.4,0.6,0.5,1
			c0.3,0.6,0.5,1.1,0.7,1.7c0.1,0.4,0.2,0.7,0.3,1.1c0,0.2,0.1,0.3,0.1,0.5c0.1,0.4,0.2,0.8,0.2,1.1c0,0.2,0.1,0.3,0.1,0.5
			s0,0.3,0.1,0.5c0,0.2,0,0.4,0,0.6c0.1,0.5,0.1,0.9,0.1,1.4c0,10.8,0,21.5,0,32.3c-0.1,0.5-0.1,1-0.1,1.5c-0.1,0.2,0,0.4-0.1,0.6
			s0,0.4-0.1,0.6s-0.1,0.6-0.2,0.9c-0.1,0.2-0.1,0.5-0.2,0.7c-0.1,0.4-0.2,0.9-0.4,1.3c-0.2,0.6-0.5,1.2-0.8,1.8
			c-0.3,0.5-0.6,1-1,1.5c-0.2,0.2-0.4,0.4-0.6,0.6s-0.3,0.4-0.5,0.5c-0.4,0.4-0.8,0.7-1.3,1c-0.6,0.5-1.3,0.9-2,1.2
			c-0.5,0.3-1.1,0.5-1.7,0.6c-0.5,0.1-1,0.3-1.5,0.4l-1.2,0.2c-0.3,0.1-0.7,0-1,0.1c-0.7,0.1-1.4,0.1-2.1,0.1
			c-0.2,0-0.5-0.1-0.7-0.1s-0.5,0-0.7,0c-0.4,0-0.9-0.1-1.3-0.3c-0.5,0-0.9-0.1-1.4-0.3c-0.4-0.1-0.7-0.2-1.1-0.4
			c-0.6-0.2-1.1-0.5-1.6-0.8s-1.1-0.6-1.6-1c-0.3-0.2-0.6-0.5-0.8-0.8c-0.1-0.1-0.3-0.2-0.4-0.4s-0.2-0.2-0.4-0.4
			c-0.4-0.4-0.7-0.9-1-1.4c-0.2-0.4-0.4-0.7-0.6-1.1c-0.3-0.7-0.6-1.4-0.8-2.1c-0.1-0.4-0.2-0.8-0.3-1.3c-0.1-0.4-0.2-0.9-0.2-1.4
			c-0.2-0.3,0-0.5-0.1-0.8c0-0.3,0-0.5-0.1-0.8c-0.1-0.9-0.1-1.8-0.1-2.7s0-1.8,0-2.7L241.6,150z M260.3,150c0-5.5,0-11.1,0-16.6
			c0-0.4,0-0.7-0.1-1.1c-0.1-0.1,0-0.4-0.1-0.5s-0.1-0.6-0.3-0.9c-0.3-0.8-0.8-1.4-1.4-1.9c-0.3-0.2-0.7-0.4-1.1-0.5
			c-0.3-0.1-0.7-0.2-1.1-0.2c-0.7-0.1-1.4,0-2.1,0.2c-0.5,0.1-1,0.3-1.5,0.6c-0.2,0.2-0.5,0.5-0.7,0.7s-0.3,0.4-0.4,0.6
			c-0.1,0.2-0.2,0.4-0.3,0.6c-0.1,0.3-0.2,0.5-0.2,0.8s-0.1,0.5-0.1,0.8s-0.1,0.6-0.1,0.8c0,10.5,0,20.9,0,31.4
			c-0.1,0.8,0,1.6,0.1,2.4c0,0.2,0,0.4,0.1,0.5s0,0.4,0.1,0.5c0.1,0.6,0.3,1.1,0.6,1.6c0.3,0.6,0.8,1,1.4,1.3
			c0.7,0.3,1.4,0.5,2.1,0.5c0.5,0,0.9,0,1.4-0.1c0.4-0.1,0.7-0.2,1.1-0.3s0.8-0.4,1-0.7c0.3-0.1,0.4-0.4,0.6-0.7
			c0.2-0.2,0.3-0.4,0.4-0.7c0.1-0.2,0.2-0.5,0.3-0.8c0.2-0.6,0.3-1.2,0.3-1.9C260.3,161.1,260.3,155.5,260.3,150z"/>
		<path d="M94.4,179.4h-9.3c0-0.1-0.1-0.1-0.1-0.2c0-0.2-0.1-0.4-0.1-0.7c-0.1-0.5-0.2-1-0.2-1.5c-0.1-0.2-0.1-0.4-0.1-0.6
			s0-0.4-0.1-0.5s0-0.4-0.1-0.6c0-0.2-0.1-0.4-0.1-0.6c-0.1-0.4-0.1-0.8-0.2-1.1c0-0.2,0-0.4-0.1-0.6c-0.1-0.2,0-0.4-0.1-0.6
			c-0.1-0.4-0.1-0.9-0.2-1.3c-0.1-0.2,0-0.4-0.1-0.6c-0.1-0.3-0.1-0.5-0.1-0.8c0-0.1-0.1-0.3-0.1-0.4c0-0.1,0-0.3,0-0.4l-0.1-0.1
			H72.2c-0.1,0.1-0.1,0.3-0.1,0.5c0,0.1,0,0.3-0.1,0.4c0,0.1,0.1,0.3-0.1,0.4s0,0.1,0,0.2c0,0.2,0,0.3-0.1,0.5
			c-0.1,0.1,0,0.3-0.1,0.5c0,0.2-0.1,0.4-0.1,0.6c-0.1,0.3-0.1,0.6-0.1,0.9c0,0.1-0.1,0.3-0.1,0.4s0,0.3-0.1,0.4s0,0.1,0,0.2
			c0,0.3-0.1,0.5-0.1,0.7s-0.2,0.4-0.1,0.7c-0.1,0.2,0,0.4-0.1,0.6c-0.1,0.2-0.1,0.4-0.1,0.5s-0.1,0.3-0.1,0.4s0.1,0.3-0.1,0.4
			s0,0.1,0,0.1c0,0.2,0,0.4-0.1,0.6c-0.1,0.2,0,0.4-0.1,0.6c-0.1,0.3-0.1,0.7-0.1,1l-0.1,0.1h-8.4v-0.3c0-0.2,0.1-0.4,0.1-0.6
			c0.1-0.2-0.1-0.4,0.1-0.6c0-0.2,0-0.5,0.1-0.7c0-0.3,0.1-0.6,0.2-0.8c0-0.1,0-0.1,0-0.2c0-0.2,0-0.3,0.1-0.5
			c0.1-0.1-0.1-0.3,0.1-0.5c-0.1-0.3,0.1-0.5,0.1-0.7c0-0.3,0.1-0.6,0.2-0.9c0-0.1,0-0.2,0-0.3s0.1-0.2,0.1-0.3c0-0.3,0-0.6,0.1-0.8
			c0.1-0.4,0.1-0.8,0.2-1.2c0.1-0.3,0.1-0.6,0.1-0.8c0-0.1,0.1-0.3,0.1-0.4c0-0.1,0-0.3,0.1-0.4c0.1-0.2,0.1-0.4,0.1-0.6
			c0-0.5,0.2-0.9,0.2-1.4c0-0.4,0.1-0.7,0.2-1.1c0-0.4,0.1-0.8,0.2-1.2c0.1-0.2,0.1-0.4,0.1-0.6c0-0.4,0.1-0.9,0.2-1.3
			c0-0.4,0.1-0.9,0.2-1.3c0.1-0.3,0-0.6,0.1-0.8s0.1-0.5,0.2-0.8c0-0.2,0.1-0.4,0.1-0.6c0-0.3,0.1-0.6,0.2-0.9
			c0-0.2,0.1-0.4,0.1-0.7c0-0.5,0.2-0.9,0.2-1.4c0-0.4,0.1-0.8,0.2-1.2c0-0.2,0.1-0.4,0.1-0.6c0-0.4,0.1-0.9,0.2-1.3
			c0-0.4,0.1-0.9,0.2-1.3c0.1-0.3,0.1-0.6,0.1-0.8c0-0.1,0.1-0.3,0.1-0.4c0-0.1,0-0.3,0.1-0.4c0.1-0.2,0.1-0.4,0.1-0.6
			c0-0.3,0.1-0.7,0.2-1c0-0.2,0.1-0.4,0.1-0.7c0-0.5,0.2-0.9,0.2-1.4s0.1-1.1,0.3-1.6c0-0.2,0-0.4,0.1-0.6s0-0.4,0.1-0.5
			c0.1-0.4,0.1-0.9,0.3-1.3c-0.1-0.3,0.1-0.5,0.1-0.7c0-0.1,0-0.3,0.1-0.4c0-0.2,0-0.3,0.1-0.4c0.1-0.2,0-0.4,0.1-0.6
			c0.1-0.3,0.1-0.5,0.1-0.8c0-0.1,0.1-0.3,0.1-0.4c0-0.1,0-0.2,0.1-0.4s0-0.4,0.1-0.6c0.1-0.3,0.1-0.5,0.1-0.8
			c0-0.1,0.1-0.3,0.1-0.4c0-0.1,0-0.3,0.1-0.4c0.1-0.2,0-0.4,0.1-0.6c0-0.5,0.1-0.9,0.2-1.4c0-0.4,0.1-0.8,0.2-1.2
			c0.1-0.2,0-0.5,0.1-0.7s0.1-0.7,0.2-1.1c0.1-0.3,0.1-0.5,0.1-0.8c0-0.1,0.1-0.3,0.1-0.4s0-0.3,0.1-0.4c0-0.2,0-0.5,0.1-0.7
			c0-0.2,0-0.3,0.1-0.5c0.1-0.1,0-0.3,0.1-0.4s0-0.4,0.1-0.6c0-0.5,0.1-0.9,0.2-1.4c0-0.4,0.1-0.8,0.2-1.1c0-0.2,0-0.4,0.1-0.5
			c0.1-0.2,0-0.3,0.1-0.5c0.1-0.4,0.1-0.9,0.2-1.3c0.1-0.3,0.1-0.5,0.1-0.8c0-0.1,0.1-0.3,0.1-0.4s0-0.3,0.1-0.3s0,0,0,0
			c-0.1-0.3,0.1-0.6,0.1-0.8H85c0,0.4,0.1,0.7,0.2,1.1c0.1,0.3,0.1,0.6,0.1,0.8c0,0.1,0.1,0.3,0.1,0.4s0,0.3,0.1,0.4
			c0.1,0.2,0.1,0.5,0.1,0.7c0,0.4,0.1,0.9,0.2,1.3s0.1,0.9,0.2,1.3c0.1,0.3,0,0.6,0.1,0.8c0.1,0.4,0.1,0.9,0.2,1.3
			c0.1,0.3,0.1,0.6,0.1,0.9c0,0.1,0,0.3,0.1,0.4c0.1,0.4,0.1,0.9,0.3,1.4c0.1,0.3,0.1,0.6,0.1,0.8c0,0.1,0.1,0.3,0.1,0.4
			s-0.1,0.3,0.1,0.4s0,0.1,0,0.1c0,0.5,0.2,0.9,0.2,1.4c0.1,0.2,0,0.4,0.1,0.5s0,0.4,0.1,0.5c0.1,0.3,0.1,0.7,0.2,1.1
			c0,0.1,0.1,0.2,0.1,0.4s0,0.3,0.1,0.4s0,0.1,0,0.2c0,0.2,0,0.3,0.1,0.5c0.1,0.1,0,0.3,0.1,0.5s0.1,0.4,0.1,0.6
			c0,0.3,0.1,0.6,0.1,0.8c0,0.1,0.1,0.3,0.1,0.4s0.1,0.3,0.1,0.4s-0.1,0.3,0.1,0.4s0,0.1,0,0.2c0,0.2,0,0.3,0.1,0.5
			c0.1,0.1,0,0.3,0.1,0.5s0,0.4,0.1,0.6c0,0.5,0.2,0.9,0.2,1.4c0,0.1,0.1,0.3,0.1,0.4c0,0.1,0,0.3,0.1,0.4c0,0.2,0,0.3,0.1,0.4
			c0.1,0.2,0.1,0.4,0.1,0.6s0.1,0.7,0.2,1.1c0,0.2,0,0.4,0.1,0.5c0.1,0.3,0.1,0.5,0.1,0.8c0,0.1,0.1,0.3,0.1,0.4
			c0,0.1,0,0.2,0.1,0.4c0,0.2,0.1,0.4,0.1,0.6c0,0.5,0.2,0.9,0.2,1.4c0,0.4,0.1,0.8,0.2,1.2c0.1,0.3,0,0.6,0.1,0.8
			c0,0.3,0.1,0.5,0.2,0.8c0.1,0.2,0.1,0.4,0.1,0.6c0,0.5,0.1,0.9,0.2,1.4c0,0.4,0.1,0.8,0.2,1.2c-0.1,0.3,0.1,0.6,0.1,0.8
			c0,0.1,0,0.3,0.1,0.4c0,0.1-0.1,0.3,0.1,0.4s0,0.1,0,0.1c0,0.5,0.2,0.9,0.2,1.4c0.1,0.2,0,0.4,0.1,0.5c0,0.2,0.1,0.3,0.1,0.5
			c0.1,0.4,0.1,0.8,0.2,1.1c0,0.2,0,0.4,0.1,0.6s0,0.4,0.1,0.5c0.1,0.4,0.1,0.9,0.2,1.3c0.1,0.2,0.1,0.4,0.1,0.6
			c0,0.1,0,0.3,0.1,0.4c0,0.1,0,0.3,0.1,0.4s0,0.4,0.1,0.6c0,0.5,0.2,1,0.2,1.5c0.1,0.2,0,0.4,0.1,0.5s0,0.4,0.1,0.5s0,0.4,0.1,0.5
			s0,0.4,0.1,0.6s0,0.4,0.1,0.5c0.2,0.4,0.1,0.8,0.2,1.2c0,0.2,0.1,0.4,0.1,0.6c0,0.5,0.2,0.9,0.2,1.4c0,0.4,0.1,0.8,0.2,1.2
			c0.1,0.3,0.1,0.6,0.1,0.8c0,0.1,0.1,0.3,0.1,0.4s0,0.3,0.1,0.4s0.1,0.4,0.1,0.6s0.1,0.5,0.1,0.8C94.2,179.2,94.3,179.3,94.4,179.4
			z M77.8,131.1c-0.1,0.4-0.2,0.9-0.2,1.3c-0.1,0.3-0.1,0.6-0.1,0.8c0,0.4-0.1,0.7-0.2,1.1c-0.1,0.2,0,0.5-0.1,0.7s0,0.3-0.1,0.5
			S77,135.8,77,136v0.1c0,0-0.1,0.3-0.1,0.4s-0.1,0.3-0.1,0.4c0,0.4-0.1,0.7-0.2,1.1c-0.1,0.5-0.2,1-0.2,1.4c0,0.1,0,0.1,0,0.2
			s0,0.3-0.1,0.5s-0.1,0.3-0.1,0.5c0,0.1,0,0.1,0,0.2c-0.1,0.3-0.1,0.6-0.2,0.9c0,0.3-0.1,0.5-0.1,0.8c0,0.2-0.1,0.3,0,0.5
			c0,0.1-0.1,0.3-0.1,0.4c0,0.3,0,0.6-0.1,0.8s0,0.4-0.1,0.6c-0.2,0.4-0.1,0.9-0.3,1.3c0.1,0.3-0.1,0.5-0.1,0.7s-0.1,0.5-0.1,0.8
			v0.1c0,0-0.1,0.2-0.1,0.4c0,0.1-0.1,0.2-0.1,0.4s0,0.4-0.1,0.6c-0.1,0.2,0,0.4-0.1,0.6c0.1,0.2-0.1,0.5-0.1,0.7s-0.1,0.5-0.1,0.7
			c0,0.1,0,0.1,0,0.2s0,0.4-0.1,0.5c-0.1,0.2-0.1,0.3-0.1,0.5c0,0.1,0,0.1,0,0.2c-0.2,0.4-0.1,0.9-0.3,1.3c-0.1,0.2,0,0.4-0.1,0.5
			c-0.1,0.2-0.1,0.4-0.1,0.6c-0.1,0.4-0.1,0.8-0.2,1.1c0,0.2,0,0.4-0.1,0.6c-0.1,0.2,0,0.4-0.1,0.6s0,0.4-0.1,0.6
			c0,0.2-0.1,0.4-0.1,0.6c-0.1,0.4-0.1,0.8-0.2,1.1s-0.1,0.8-0.2,1.2c1.5,0.1,8.5,0,8.9,0c0-0.1-0.1-0.2-0.1-0.3
			c0-0.3-0.1-0.6-0.1-0.9v-0.1c0,0,0-0.2-0.1-0.4c0-0.1-0.1-0.2-0.1-0.4s0-0.4-0.1-0.6c-0.1-0.2,0-0.4-0.1-0.6
			c0.1-0.2-0.1-0.5-0.1-0.7s0-0.5-0.1-0.7c-0.1-0.3,0-0.5-0.1-0.7c-0.1-0.4-0.1-0.9-0.2-1.3c-0.1-0.2,0-0.4-0.1-0.6
			c0-0.2-0.1-0.4-0.1-0.6c-0.1-0.4-0.1-0.8-0.2-1.1c0-0.2,0-0.4-0.1-0.6c-0.1-0.2,0-0.4-0.1-0.6s-0.1-0.4-0.1-0.5s-0.1-0.4-0.1-0.6
			c-0.1-0.4-0.1-0.8-0.2-1.1c0-0.2,0-0.4-0.1-0.6c-0.1-0.2,0-0.4-0.1-0.6s0-0.3-0.1-0.5s-0.1-0.4-0.2-0.6c0-0.4-0.1-0.9-0.2-1.3
			c-0.1-0.3-0.1-0.7-0.2-1.1c0-0.5-0.2-1-0.2-1.4c0-0.1,0-0.1,0-0.2c-0.1-0.3-0.1-0.6-0.2-0.9c0-0.3-0.1-0.5-0.1-0.8
			c0-0.1-0.1-0.3-0.1-0.4c0-0.1-0.1-0.3-0.1-0.4c0-0.3,0-0.6-0.1-0.8s0-0.4-0.1-0.6c-0.2-0.4-0.1-0.9-0.3-1.3
			c-0.1-0.2,0-0.4-0.1-0.6s0-0.4-0.1-0.6c0-0.5-0.1-1-0.2-1.5c0-0.2,0-0.5-0.1-0.7s0-0.5-0.2-0.7c0-0.2,0-0.5-0.1-0.7
			C77.9,131.7,77.8,131.4,77.8,131.1L77.8,131.1z"/>
		<path d="M302.9,179.4c0-0.2,0-0.4,0.1-0.5c0.1-0.2,0-0.4,0.1-0.5s0-0.4,0.1-0.6c0.1-0.3,0.1-0.5,0.1-0.8c0-0.1,0.1-0.3,0.1-0.4
			c0-0.1,0-0.2,0.1-0.4s0-0.4,0.1-0.6c0.1-0.3,0.1-0.5,0.1-0.8c0-0.1,0.1-0.3,0.1-0.4c0-0.1,0-0.3,0.1-0.4c0.1-0.3,0.1-0.5,0.1-0.8
			c0-0.2,0-0.4,0.1-0.6c0.1-0.4,0.1-0.9,0.2-1.3c0.1-0.3,0.1-0.6,0.1-0.8s0.1-0.4,0.1-0.7c0.2-0.2,0-0.4,0.2-0.6s0-0.2,0-0.3
			s0.1-0.2,0.1-0.3c0-0.3,0-0.6,0.1-0.8c0.1-0.4,0.1-0.9,0.2-1.3c0.1-0.3,0-0.5,0.1-0.8c0.1-0.2,0.1-0.5,0.1-0.7
			c0.2-0.2,0-0.5,0.2-0.7c0-0.2,0-0.5,0.1-0.7c0-0.3,0.1-0.6,0.2-0.8c0-0.1,0-0.1,0-0.2c0-0.2,0-0.3,0.1-0.5
			c0.1-0.1-0.1-0.3,0.1-0.5s0-0.1,0-0.1c0-0.2,0-0.4,0.1-0.5s0-0.3,0.1-0.5c0-0.3,0-0.5,0.1-0.7c0-0.3,0.1-0.5,0.2-0.8
			c0,0,0-0.1,0-0.2c0-0.2,0-0.3,0.1-0.5c0.1-0.1,0-0.3,0.1-0.5c0-0.2,0-0.5,0.1-0.7c0-0.2,0-0.3,0.1-0.5c0.1-0.1,0-0.3,0.1-0.4
			s0-0.4,0.1-0.6c0.1-0.3,0.1-0.5,0.1-0.8c0-0.1,0.1-0.3,0.1-0.4s0-0.2,0.1-0.4s0-0.2,0-0.3s0.1-0.2,0.1-0.3c0-0.3,0-0.6,0.1-0.8
			c0.1-0.4,0.1-0.8,0.3-1.2c0-0.2,0-0.5,0.1-0.7c0-0.2,0-0.3,0.1-0.5c0.1-0.1,0-0.3,0.1-0.4s0-0.4,0.1-0.6c0-0.5,0.1-0.9,0.2-1.4
			c0-0.4,0.1-0.8,0.2-1.1c0-0.2,0-0.4,0.1-0.5c0.1-0.2,0-0.4,0.1-0.5c0.1-0.3,0.1-0.7,0.2-1.1c0-0.1,0.1-0.2,0.1-0.4s0-0.3,0.1-0.4
			s0-0.1,0-0.2c0-0.2,0-0.3,0.1-0.5c0.1-0.1,0-0.3,0.1-0.4s0-0.4,0.1-0.6s0-0.5,0.1-0.8c0.1-0.4,0.1-0.9,0.2-1.4
			c0.1-0.3,0.1-0.6,0.1-0.8c0-0.1,0.1-0.3,0.1-0.4s-0.1-0.3,0.1-0.4s0-0.1,0-0.1c0-0.5,0.2-0.9,0.2-1.4c0.1-0.2,0-0.4,0.1-0.5
			s0-0.3,0.1-0.5c0.1-0.4,0.1-0.9,0.2-1.3c0-0.3,0.1-0.5,0.1-0.8c0.1-0.2,0.1-0.5,0.1-0.7c0.2-0.2,0-0.5,0.2-0.7
			c-0.1-0.3,0.1-0.5,0.1-0.7c0-0.3,0.1-0.6,0.2-0.9c0-0.1,0-0.2,0-0.3s0.1-0.2,0.1-0.3c0-0.3,0-0.6,0.1-0.8c0.1-0.4,0.1-0.8,0.2-1.2
			c0.1-0.3,0.1-0.6,0.1-0.8c0-0.1,0.1-0.3,0.1-0.4s0-0.3,0.1-0.4c0.1-0.2,0.1-0.4,0.1-0.6c0-0.5,0.1-1,0.2-1.5s0.2-1.1,0.3-1.6
			c0.1-0.2,0.1-0.3,0.2-0.4c0.1-0.2,0.1-0.4,0.1-0.5c0-0.2,0-0.3,0.1-0.4s0.1-0.3,0.1-0.4h13.4c0.1,0.1,0.1,0.3,0.1,0.5
			c0,0.1,0,0.3,0.1,0.4c0,0.1-0.1,0.3,0.1,0.4s0,0.1,0,0.1c0,0.5,0.2,0.9,0.2,1.4c0.1,0.2,0,0.4,0.1,0.6s0,0.4,0.1,0.5
			c0.1,0.4,0.1,0.8,0.2,1.2c0.1,0.2,0.1,0.4,0.1,0.7c0,0.5,0.1,0.9,0.2,1.4c0,0.4,0.1,0.8,0.3,1.3c0.1,0.2,0,0.5,0.1,0.8
			c0.1,0.2,0.1,0.5,0.1,0.7c0.2,0.2,0,0.5,0.2,0.7c-0.1,0.3,0.1,0.5,0.1,0.7s0,0.3,0.1,0.4c0,0.1,0,0.3,0.1,0.4s0,0.4,0.1,0.6
			c0.1,0.3,0.1,0.5,0.1,0.8c0,0.1,0.1,0.3,0.1,0.4s0,0.2,0.1,0.4s0,0.2,0,0.3s0.1,0.2,0.1,0.3c0,0.3,0,0.6,0.1,0.8
			c0.1,0.4,0.1,0.8,0.3,1.2c-0.1,0.3,0.1,0.5,0.1,0.7s0,0.3,0.1,0.4c0,0.1-0.1,0.3,0.1,0.4s0,0.1,0,0.2c0,0.2,0,0.3,0.1,0.5
			c0.1,0.1,0,0.3,0.1,0.5s0.1,0.4,0.1,0.6c0,0.5,0.2,0.9,0.2,1.4c0.1,0.2,0,0.4,0.1,0.5s0,0.4,0.1,0.5s0,0.4,0.1,0.6s0,0.4,0.1,0.5
			c0.1,0.4,0.1,0.9,0.2,1.3c0.1,0.3,0.1,0.5,0.1,0.8c0,0.1,0.1,0.3,0.1,0.4c0,0.1,0,0.2,0.1,0.4c0,0.2,0.1,0.4,0.1,0.6
			c0,0.5,0.1,0.9,0.2,1.4c0,0.4,0.1,0.8,0.2,1.2c0.1,0.2,0,0.5,0.1,0.7c0.1,0.5,0.1,1,0.3,1.5c-0.1,0.3,0.1,0.6,0.1,0.8
			c0,0.1,0,0.3,0.1,0.4c0,0.1,0,0.2,0.1,0.4s0,0.4,0.1,0.6c0.1,0.3,0.1,0.5,0.1,0.8c0,0.1,0.1,0.3,0.1,0.4s0,0.3,0.1,0.4
			c-0.1,0.3,0.1,0.5,0.1,0.7c0,0.3,0.1,0.6,0.1,0.9c0,0.1,0,0.2,0,0.3s0.1,0.2,0.1,0.3c0,0.3,0,0.6,0.1,0.8c0.1,0.4,0.1,0.8,0.2,1.2
			c0.1,0.2,0.1,0.4,0.1,0.6c0,0.5,0.1,0.9,0.2,1.4c0,0.4,0.1,0.8,0.2,1.2c0.1,0.2,0,0.5,0.1,0.8c0.1,0.2,0.1,0.5,0.1,0.7
			c0.2,0.2,0,0.5,0.2,0.7c-0.1,0.3,0.1,0.5,0.1,0.7c0,0.3,0.1,0.6,0.2,0.9c0,0.1,0,0.1,0,0.2c0,0.2,0,0.3,0.1,0.5
			c0.1,0.1,0,0.3,0.1,0.5c0,0.2,0.1,0.4,0.1,0.6c0.1,0.3,0,0.5,0.1,0.8c0.1,0.4,0.1,0.9,0.2,1.3c0.1,0.2,0,0.5,0.1,0.8
			c0.1,0.4,0.1,0.9,0.2,1.4c0.1,0.3,0.1,0.6,0.1,0.8c0,0.1,0.1,0.3,0.1,0.4c0,0.1,0,0.3,0.1,0.4c0.1,0.2,0.1,0.4,0.1,0.6
			c0,0.5,0.2,0.9,0.2,1.4c0.1,0.2,0,0.4,0.1,0.5s0,0.4,0.1,0.5c0.1,0.2,0.1,0.4,0.1,0.6h-9.2c0-0.4-0.1-0.7-0.2-1.1
			c-0.1-0.2,0-0.5-0.1-0.7s0-0.4-0.1-0.5c0-0.2-0.1-0.4-0.1-0.5c-0.1-0.3-0.1-0.6-0.1-0.9c0-0.1-0.1-0.3-0.1-0.4
			c0-0.1,0-0.3-0.1-0.4c-0.1-0.3-0.1-0.5-0.1-0.8c0-0.1-0.1-0.3-0.1-0.4c0-0.2,0-0.3-0.1-0.4c-0.1-0.1,0-0.4-0.1-0.6
			c-0.1-0.3-0.1-0.6-0.1-0.9c0-0.1-0.1-0.3-0.1-0.4s0-0.3-0.1-0.4s0-0.1,0-0.2c0-0.3-0.1-0.5-0.1-0.7c-0.1-0.2-0.1-0.5-0.1-0.7
			c0-0.1-0.1-0.3-0.1-0.4h-11.2c0,0.2,0,0.4-0.1,0.6c-0.1,0.2,0,0.4-0.1,0.6s0,0.3,0,0.4s-0.1,0.2-0.1,0.3c0,0.3-0.1,0.5-0.1,0.8
			c0,0.1-0.1,0.3-0.1,0.4c0,0.1,0,0.3-0.1,0.4c-0.1,0.3-0.1,0.5-0.1,0.8c0,0.1-0.1,0.3-0.1,0.4c0,0.2,0,0.3-0.1,0.4
			c-0.1,0.2,0,0.4-0.1,0.6c-0.1,0.3-0.1,0.6-0.1,0.9c0,0.1-0.1,0.3-0.1,0.4c0,0.1,0,0.3-0.1,0.4c-0.1,0.3-0.1,0.5-0.1,0.8
			c0,0.1-0.1,0.3-0.1,0.4c0,0.2,0,0.3-0.1,0.4c-0.1,0.2-0.1,0.4-0.1,0.6c0,0.2-0.1,0.5-0.1,0.7L302.9,179.4z M322.9,160.8
			c0-0.2,0-0.3,0-0.5c-0.1-0.2,0-0.4-0.1-0.5s0-0.4-0.1-0.5s0-0.5-0.1-0.7c0-0.1-0.1-0.3-0.1-0.4c0-0.1-0.1-0.3-0.1-0.4
			c0-0.3-0.1-0.6-0.1-0.8c0-0.4-0.1-0.7-0.2-1.1c-0.1-0.2,0-0.5-0.1-0.7c0-0.1-0.1-0.3-0.1-0.4c0-0.1-0.1-0.3-0.1-0.4
			c-0.1-0.4-0.1-0.8-0.2-1.1c-0.1-0.4-0.1-0.8-0.2-1.1c0-0.5-0.2-1-0.2-1.5c0-0.2,0-0.4-0.1-0.6c0-0.1-0.1-0.3-0.1-0.4
			c0-0.1-0.1-0.3-0.1-0.4c0-0.3,0-0.6-0.1-0.8c0-0.2-0.1-0.3-0.1-0.5s-0.1-0.3-0.1-0.5c0-0.3-0.1-0.6-0.1-0.8c0-0.4-0.1-0.7-0.2-1.1
			c-0.1-0.2,0-0.5-0.1-0.7c-0.1-0.4-0.1-0.9-0.2-1.3c-0.1-0.2,0-0.4-0.1-0.6c0-0.2-0.1-0.4-0.1-0.6c-0.1-0.4-0.1-0.8-0.2-1.1
			c0-0.2,0-0.4-0.1-0.6c-0.1-0.2,0-0.4-0.1-0.6s0-0.4-0.1-0.5c0-0.2-0.1-0.4-0.1-0.6c0-0.4-0.1-0.9-0.2-1.3c0-0.2,0-0.4-0.1-0.5
			s0-0.4-0.1-0.5c0-0.5-0.1-1-0.2-1.4c0-0.2,0-0.5-0.1-0.7c-0.1-0.3-0.1-0.7-0.2-1v-0.1c0,0-0.1-0.3-0.1-0.4s-0.1-0.3-0.1-0.4
			c0-0.3-0.1-0.6-0.1-1c-0.1,0.2-0.2,0.3-0.1,0.5c0,0.1,0,0.2,0,0.2s-0.1,0.3-0.1,0.4s-0.1,0.3-0.1,0.4c0,0.3,0,0.6-0.1,0.8
			s0,0.4-0.1,0.6s0,0.4-0.1,0.5c-0.1,0.2-0.1,0.4-0.1,0.6c0,0.1,0,0.1,0,0.2c-0.1,0.3-0.1,0.5-0.1,0.8c-0.1,0.3-0.1,0.6-0.1,0.9
			c-0.1,0.2,0,0.4-0.1,0.6c-0.1,0.3-0.1,0.6-0.1,0.9c0,0.3-0.1,0.5-0.1,0.8c0,0.1-0.1,0.3-0.1,0.4c0,0.1-0.1,0.3-0.1,0.4
			c0,0.2,0,0.4-0.1,0.5c0,0.2,0.1,0.4-0.1,0.5c0,0.5-0.2,1-0.2,1.4c0,0.1,0,0.1,0,0.2s0,0.3-0.1,0.5s-0.1,0.3-0.1,0.5
			c0,0.1,0,0.1,0,0.2s-0.1,0.3-0.1,0.4c0,0.1-0.1,0.3-0.1,0.4c0,0.3-0.2,0.5-0.1,0.8c-0.1,0.2,0,0.4-0.1,0.6
			c-0.1,0.2-0.1,0.4-0.1,0.6v0.1c0,0-0.1,0.2-0.1,0.4s-0.1,0.3-0.1,0.4c0,0.2,0,0.4-0.1,0.5c-0.1,0.2,0,0.4-0.1,0.6
			c0.1,0.2-0.1,0.5-0.1,0.7s-0.1,0.5-0.1,0.7c0,0.1,0,0.1,0,0.2c-0.2,0.2,0,0.5-0.2,0.7c0,0.2,0,0.5-0.1,0.7c0,0.3-0.1,0.6-0.1,0.9
			v0.1c-0.1,0.3-0.1,0.5-0.1,0.8s-0.1,0.6-0.1,0.9c-0.1,0.4-0.1,0.8-0.1,1.1v0.1c0,0,0,0.2-0.1,0.4s-0.1,0.3-0.1,0.4
			c0,0.3,0,0.6-0.1,0.9c-0.1,0.2,0,0.4-0.1,0.6c-0.1,0.3-0.1,0.6-0.1,0.9c0,0.1-0.1,0.3-0.1,0.4c0,0.1,0,0.3-0.1,0.4
			c-0.1,0.3-0.1,0.6-0.1,0.9L322.9,160.8z"/>
		<path d="M157.4,157.3v22.1h-9.2v-58.8h14.6c0.2,0,0.4,0.1,0.7,0.1c0.2,0,0.4,0,0.6,0c0.4,0.1,0.8,0.1,1.1,0.2s0.9,0.2,1.3,0.3
			c0.4,0.2,0.9,0.3,1.3,0.4c0.9,0.4,1.8,0.9,2.7,1.5c0.6,0.5,1.2,1,1.7,1.5c0.4,0.4,0.7,0.8,1,1.3c0.4,0.7,0.7,1.4,1,2.1
			c0.1,0.3,0.3,0.7,0.4,1c0.1,0.4,0.2,0.8,0.3,1.3c0,0.2,0.1,0.4,0.1,0.6c0.1,0.2-0.1,0.4,0.1,0.6l0,0c0,0.3,0,0.7,0.1,1
			c0.1,0.5,0,1.1,0.1,1.6s0.1,1,0.1,1.5c0,2.6,0,5.1,0,7.7c0,0.3-0.1,0.6-0.1,0.9c0,0.3,0,0.6,0,0.9c0,0.2-0.1,0.5-0.1,0.7
			s-0.1,0.5-0.1,0.7c0,0.3-0.1,0.6-0.2,0.9c-0.1,0.3-0.2,0.6-0.2,0.9c-0.1,0.6-0.4,1.2-0.5,1.8c-0.4,0.8-0.8,1.6-1.3,2.3
			c-0.2,0.3-0.4,0.6-0.7,0.9c-0.2,0.2-0.3,0.4-0.5,0.6c-0.4,0.4-0.8,0.7-1.3,1.1c-0.5,0.3-1,0.7-1.5,0.9c-0.6,0.3-1.1,0.5-1.8,0.7
			c-0.5,0.2-0.9,0.3-1.4,0.4c-0.3,0-0.6,0.1-1,0.2c-0.2,0-0.4,0.1-0.7,0.1c-0.2,0-0.4,0.1-0.6,0.1c-0.2,0-0.4,0-0.6,0
			c-0.4,0.1-0.8,0.1-1.3,0.1L157.4,157.3z M157.4,148.9c1.4,0,2.7,0,4,0c0.4,0,0.9,0,1.3-0.1c0.3-0.1,0.6-0.1,0.9-0.2
			c0.4-0.1,0.8-0.3,1.2-0.6c0.5-0.4,0.9-1,1.1-1.7c0.2-0.4,0.2-0.8,0.3-1.1c0.1-0.2,0.1-0.4,0.1-0.6s0.1-0.4,0.1-0.6
			c0-3.3,0-6.7,0-10c0-0.1,0-0.2,0-0.3c-0.1-0.2-0.1-0.4-0.1-0.5c0-0.2-0.1-0.4-0.1-0.5c0-0.3-0.1-0.7-0.2-1c-0.2-0.6-0.5-1.2-1-1.7
			c-0.5-0.4-1.1-0.7-1.7-0.9c-0.3,0-0.7-0.1-1-0.1c-1.5,0-2.9,0-4.4,0h-0.4L157.4,148.9z"/>
		<path d="M125.7,136.5H117c0-0.1,0-0.2,0-0.3c0-0.9,0-1.8,0-2.6c0-0.4,0-0.8-0.1-1.2c0-0.3-0.1-0.7-0.2-1s-0.2-0.6-0.3-0.9
			c-0.2-0.3-0.3-0.6-0.5-0.8c0-0.1-0.1-0.1-0.2-0.2c-0.4-0.5-0.9-0.8-1.6-1c-0.3-0.1-0.5-0.1-0.8-0.2c-0.4-0.1-0.8-0.1-1.3-0.1
			c-0.3,0-0.5,0-0.8,0.1c-0.2,0-0.5,0.1-0.7,0.2c-0.7,0.2-1.3,0.7-1.7,1.3c-0.3,0.5-0.6,1.1-0.8,1.7c0,0.5-0.2,1-0.2,1.5
			s-0.1,0.9-0.1,1.3c0,0.2,0.1,0.4,0.1,0.7c0,0.2,0,0.4,0,0.6c0.1,0.4,0.2,0.8,0.3,1.2s0.2,0.8,0.3,1.1c0.1,0.2,0.2,0.5,0.3,0.7
			c0.1,0.2,0.1,0.4,0.3,0.6s0.2,0.4,0.3,0.6c0.3,0.4,0.5,0.9,0.8,1.3s0.7,0.9,1,1.3c0.7,0.9,1.5,1.7,2.3,2.4c0.5,0.5,1,1,1.6,1.5
			c0.4,0.3,0.7,0.7,1,1s0.9,0.9,1.4,1.3c0.7,0.6,1.4,1.2,2,1.9c0.5,0.5,0.9,1,1.4,1.6c0.7,0.8,1.3,1.7,1.9,2.6
			c0.5,0.8,0.9,1.5,1.3,2.3c0.3,0.5,0.4,1.1,0.7,1.6c0.1,0.6,0.4,1.1,0.5,1.7c0,0.3,0.1,0.6,0.2,0.9c0.1,0.2,0,0.4,0.1,0.6
			s0,0.6,0.1,0.9s0,0.7,0.1,1c0.1,0.6,0.1,1.1,0.1,1.7c0,0.2,0,0.3,0,0.5c0,0.6,0,1.2-0.1,1.8c0,0.2,0,0.5-0.1,0.7s0,0.4-0.1,0.7
			s-0.1,0.6-0.2,0.8s-0.1,0.5-0.2,0.8c-0.2,0.6-0.3,1.1-0.6,1.7s-0.4,1-0.6,1.4c-0.2,0.5-0.5,0.9-0.8,1.4c-0.4,0.6-0.8,1.1-1.3,1.5
			c-0.6,0.6-1.3,1.1-2,1.5c-0.3,0.2-0.7,0.4-1.1,0.6c-0.6,0.3-1.3,0.5-2,0.7c-0.4,0.1-0.8,0.2-1.2,0.3c-0.2,0-0.4,0-0.6,0.1
			s-0.4,0-0.6,0.1c-0.4,0.1-0.8,0.1-1.1,0.1c-0.7,0.1-1.3,0.1-2,0.1c-0.2,0-0.4,0-0.7-0.1c-0.2,0-0.4,0-0.6,0s-0.4-0.1-0.6-0.1
			l-0.6-0.1c-0.4-0.1-0.8-0.2-1.3-0.3s-1-0.3-1.5-0.5l-0.4-0.2c-0.4-0.2-0.9-0.4-1.3-0.6c-0.3-0.1-0.5-0.3-0.7-0.5
			c-0.6-0.5-1.2-1-1.7-1.6c-0.4-0.4-0.8-0.9-1.1-1.4c-0.4-0.5-0.7-1.1-0.9-1.7c-0.3-0.6-0.5-1.2-0.6-1.8c-0.2-0.4-0.3-0.9-0.4-1.4
			c-0.1-0.2-0.1-0.5-0.1-0.7s-0.1-0.4-0.1-0.5c0-0.2,0-0.3-0.1-0.5s0-0.4,0-0.6c-0.1-0.3-0.1-0.7-0.1-1c-0.2-1.5-0.1-2.9-0.1-4.4
			c0-0.1,0-0.3,0-0.4h8.7v0.4c0,1.6,0,3.1,0,4.7c0,0.2,0,0.4,0.1,0.5c0.1,0.2-0.1,0.4,0.1,0.5c0,0.3,0.1,0.6,0.2,0.8
			c0.3,0.8,0.7,1.5,1.4,2.1c0.5,0.3,1,0.5,1.5,0.7c0.7,0.2,1.5,0.2,2.2,0.1c0.5,0,1-0.2,1.5-0.4c0.4-0.2,0.8-0.4,1.2-0.8
			c0.5-0.5,0.9-1.1,1.1-1.8c0.1-0.3,0.1-0.6,0.2-0.9c0.1-0.9,0.2-1.7,0.2-2.6c0-0.2,0-0.4-0.1-0.5c0-0.2,0.1-0.4-0.1-0.5
			c0-0.3-0.1-0.7-0.2-1c-0.1-0.5-0.3-1-0.5-1.5c-0.2-0.3-0.3-0.7-0.4-1c-0.2-0.5-0.5-0.9-0.8-1.4c-0.4-0.5-0.8-1-1.2-1.5
			c-1-1.1-2-2.2-3.1-3.2c-0.4-0.4-0.7-0.7-1.1-1s-0.7-0.7-1.1-1c-0.7-0.5-1.2-1.2-1.8-1.7c-0.2-0.1-0.3-0.3-0.5-0.4
			c-0.5-0.6-1-1.1-1.6-1.6c-0.4-0.5-0.9-1-1.3-1.5c-0.6-0.7-1.1-1.5-1.6-2.3c-0.3-0.5-0.6-1.1-0.9-1.6c-0.1-0.1-1-2.3-1-2.4
			c0-0.3-0.1-0.6-0.2-0.8c0-0.3-0.1-0.5-0.2-0.8c-0.1-0.2-0.1-0.5-0.1-0.7c0-0.1-0.1-0.3-0.1-0.4s0.1-0.3-0.1-0.4s0-0.1,0-0.1
			c0-0.4-0.1-0.8-0.1-1.2c-0.1-0.7-0.1-1.4-0.1-2.2c0-0.3,0.1-0.6,0.1-0.9c0-0.3,0-0.6,0-0.9c0-0.2,0.1-0.5,0.1-0.7s0.1-0.5,0.1-0.7
			s0.1-0.6,0.2-0.9s0.2-0.6,0.2-0.9s0.2-0.8,0.3-1.2c0.2-0.7,0.5-1.4,0.8-2s0.7-1.2,1.2-1.8c0.4-0.5,0.9-1,1.4-1.4s1-0.8,1.5-1.1
			l0.8-0.4c0.3-0.2,0.7-0.3,1.1-0.4c0.3-0.1,0.7-0.3,1.1-0.3c0.4-0.1,0.8-0.2,1.2-0.3l1.1-0.2c0.3-0.1,0.7,0,1-0.1
			c0.7-0.1,1.4-0.1,2.2-0.1c0.2,0,0.4,0.1,0.7,0.1c0.2,0,0.4,0,0.7,0c0.4,0.1,0.8,0.1,1.1,0.2s0.8,0.1,1.2,0.3s0.8,0.3,1.3,0.4
			c0.5,0.2,1.1,0.4,1.6,0.7c0.5,0.3,1,0.6,1.4,0.9c0.5,0.3,1,0.7,1.4,1.2c0.5,0.6,1,1.2,1.4,1.8c0.3,0.5,0.5,0.9,0.8,1.4
			c0.2,0.5,0.4,0.9,0.5,1.4c0.2,0.5,0.3,1,0.4,1.6c0.1,0.4,0.2,0.8,0.2,1.3c0,0.1,0.1,0.3,0.1,0.5s0.1,0.4,0.1,0.5
			c0,0.2,0,0.3,0,0.5c0.1,0.6,0.1,1.3,0.1,1.9C125.7,135.2,125.7,135.9,125.7,136.5z"/>
		<path d="M366.4,136.5h-8.7V135c0-0.3,0-0.6,0-0.9c0-0.5,0-1-0.1-1.4c-0.1-0.7-0.2-1.4-0.5-2c-0.2-0.6-0.6-1.1-1.1-1.5
			c-0.3-0.2-0.6-0.4-0.9-0.5c-0.2-0.1-0.4-0.2-0.7-0.2c0,0,0,0-0.1,0c-0.4,0-0.9-0.1-1.3-0.1s-0.8,0.1-1.3,0.1
			c-0.3,0.1-0.6,0.1-0.9,0.3c-0.2,0.1-0.4,0.2-0.5,0.3c-0.4,0.3-0.7,0.6-1,1s-0.5,0.9-0.6,1.4c-0.1,0.2-0.1,0.4-0.2,0.6
			c-0.1,0.2-0.1,0.4-0.1,0.7c0,0.2-0.1,0.4-0.1,0.7c0,0.2,0,0.5,0,0.7s0,0.5,0,0.7s0,0.4,0.1,0.6c0.1,0.2,0,0.4,0.1,0.6
			c0.1,0.2,0.1,0.4,0.1,0.6c0.1,0.4,0.2,0.8,0.3,1.2c0.2,0.7,0.5,1.4,0.9,2c0.3,0.6,0.7,1.2,1.1,1.8c0.4,0.5,0.8,1,1.2,1.5
			c0.5,0.6,1.2,1.2,1.8,1.8c0.2,0.2,0.4,0.4,0.6,0.6s0.5,0.5,0.8,0.7c0.2,0.3,0.5,0.5,0.7,0.7c0.4,0.3,0.7,0.6,1,0.9
			c1.3,1.1,2.4,2.4,3.6,3.6c0.3,0.3,0.5,0.6,0.8,0.9s0.6,0.7,0.9,1.1s0.6,0.8,0.9,1.3s0.6,1.1,1,1.6c0.5,1,1,2,1.3,3.1
			c0,0.1,0.1,0.3,0.2,0.4s0,0.4,0.1,0.5s0,0.4,0.2,0.5c0,0.4,0.1,0.7,0.2,1.1c0,0.2,0,0.5,0.1,0.7c0.1,0.3,0,0.5,0.1,0.7
			c0.1,0.3,0.1,0.6,0.1,0.9c0.1,0.7,0.1,1.4,0.1,2.2c0,0.4-0.1,0.8-0.1,1.3c-0.1,0.2-0.1,0.5-0.1,0.7c0,0.1-0.1,0.3-0.1,0.4
			c0,0.2,0,0.3-0.1,0.4c-0.1,0.2,0,0.4-0.1,0.6c0,0.4-0.1,0.9-0.3,1.3c-0.1,0.4-0.2,0.8-0.4,1.2c-0.2,0.6-0.5,1.2-0.8,1.7
			c-0.3,0.6-0.7,1.2-1.1,1.7c-0.3,0.4-0.6,0.7-0.9,1c-0.7,0.7-1.5,1.3-2.4,1.8c-0.4,0.2-0.9,0.5-1.3,0.6c-0.5,0.2-1,0.4-1.5,0.5
			c-0.3,0.1-0.5,0.1-0.8,0.2c-0.2,0-0.3,0-0.5,0.1c-0.3,0.1-0.6,0.1-0.9,0.1c-0.2,0-0.4,0.1-0.6,0.1s-0.4,0-0.6,0
			c-0.3,0.1-0.7,0.1-1,0.1s-0.7,0-1,0c-0.4,0-0.8-0.1-1.2-0.1c-0.2,0-0.4-0.1-0.6-0.1s-0.4,0-0.6-0.1c-0.2,0-0.4,0-0.6-0.1
			c-0.4-0.1-0.8-0.2-1.1-0.3s-0.7-0.2-1.1-0.4s-0.8-0.3-1.2-0.5c-0.6-0.3-1.2-0.7-1.7-1.1c-0.4-0.3-0.8-0.6-1.2-1
			c-0.5-0.5-1-1.1-1.4-1.7c-0.7-1.1-1.2-2.3-1.6-3.6c-0.1-0.2-0.2-0.5-0.2-0.7s-0.1-0.5-0.2-0.7c0-0.2,0-0.3-0.1-0.5s0-0.4-0.1-0.5
			c-0.1-0.3,0-0.6-0.1-0.9s0-0.7,0-1c-0.1-0.8-0.1-1.7-0.1-2.5s0-1.7,0-2.5h8.7v0.3c0,1.1,0,2.2,0,3.3c0,0.6,0.1,1.2,0.1,1.9
			c0,0.4,0.1,0.9,0.3,1.3c0.1,0.4,0.3,0.8,0.5,1.1c0.2,0.4,0.5,0.7,0.8,0.9c0.3,0.3,0.7,0.5,1.1,0.6c0.3,0.1,0.6,0.2,0.9,0.3
			c0.5,0.1,1,0.1,1.6,0.1c0.2,0,0.4-0.1,0.7-0.1c0.2,0,0.4-0.1,0.6-0.1c0.3-0.1,0.6-0.2,0.9-0.4s0.5-0.3,0.8-0.6
			c0.2-0.2,0.4-0.4,0.5-0.7c0.2-0.3,0.4-0.7,0.5-1.1c0.1-0.4,0.2-0.7,0.3-1.1s0-0.7,0.1-1s0.1-0.7,0.1-1c0-0.2,0-0.5-0.1-0.7
			c0-0.2,0-0.4-0.1-0.7c-0.1-0.2-0.1-0.4-0.1-0.6c-0.1-0.5-0.2-1-0.4-1.5c-0.2-0.7-0.5-1.4-0.9-2c-0.3-0.6-0.7-1.2-1.2-1.7l-0.7-0.9
			c-0.3-0.3-0.6-0.6-0.9-0.9c-0.4-0.5-0.9-1-1.4-1.4c-0.5-0.5-1-1-1.6-1.5c-0.3-0.3-0.6-0.6-0.9-0.9c-0.5-0.4-0.9-0.9-1.4-1.3
			c-0.8-0.7-1.5-1.4-2.2-2.1c-0.3-0.5-0.7-0.7-1-1.2c-0.2-0.2-0.4-0.4-0.6-0.7c-0.5-0.6-0.9-1.2-1.4-1.8c-0.3-0.4-0.5-0.8-0.8-1.2
			s-0.4-0.8-0.6-1.3c-0.4-0.9-0.8-1.8-1.1-2.7c-0.1-0.4-0.2-0.8-0.3-1.3s-0.1-0.7-0.2-1s0-0.4-0.1-0.6s0-0.3,0-0.4s-0.1-0.2-0.1-0.4
			c0-0.6-0.1-1.2-0.1-1.7s0-1.2,0-1.8c0-0.2,0.1-0.4,0.1-0.7c0-0.2,0-0.4,0-0.6c0.1-0.4,0.1-0.9,0.2-1.3s0.1-0.7,0.2-1
			s0.2-0.8,0.3-1.2c0.1-0.3,0.2-0.6,0.3-0.9c0.2-0.6,0.5-1.2,0.8-1.7c0.3-0.6,0.7-1.1,1-1.6c0.3-0.4,0.6-0.7,0.9-1.1
			c0.4-0.3,0.8-0.7,1.3-1c0.6-0.5,1.3-0.9,2-1.2c0.6-0.3,1.2-0.5,1.8-0.6c0.4-0.1,0.9-0.2,1.3-0.3c0.3-0.1,0.6-0.1,0.9-0.1
			c0.2,0,0.4-0.1,0.6-0.1s0.4,0,0.6,0c0.4-0.1,0.8-0.1,1.1-0.1c0.4,0,0.7,0,1.1,0c0.4,0.1,0.8,0,1.1,0.1s0.8,0.1,1.2,0.2
			c0.9,0.2,1.7,0.4,2.5,0.7c0.4,0.2,0.9,0.3,1.3,0.6c0.6,0.3,1.1,0.6,1.6,1c0.3,0.3,0.7,0.5,1,0.8c0.2,0.2,0.3,0.3,0.4,0.5
			s0.3,0.3,0.4,0.5c0.3,0.3,0.5,0.7,0.8,1c0.1,0.1,0.1,0.3,0.2,0.4c0.2,0.4,0.3,0.7,0.5,1.1c0.2,0.5,0.4,1,0.5,1.5
			c0.2,0.5,0.3,1,0.4,1.5c0.2,0.1,0,0.3,0.1,0.4c0.1,0.2,0.1,0.3,0.1,0.5c0,0.1,0,0.3,0,0.5c0.1,0.2,0.1,0.3,0.1,0.5
			c0,0.1,0,0.3,0.1,0.4c0,0.3,0,0.7,0,1c0.1,0.5,0.1,1,0.1,1.6c0,0.5,0,1,0,1.6L366.4,136.5z"/>
		<path d="M206.1,171v8.4h-25v-58.8h25v8.4l0,0l0,0h-15.8v16.4h12.5v8.4h-12.5V171H206.1z"/>
		<path d="M284,129h-9.6v-8.4h28.4v8.4h-9.6v50.4H284V129z"/>
		<path d="M33.5,179.4v-58.7h9.2l0,0c0,16.8,0,33.5,0,50.3h15.2v8.4H33.5z"/>
		<path d="M212.3,120.6h9.2V171h15l0.1,0.1v8.3h-24.3V120.6z"/>
	</g>
</g>
</svg>
