<?xml version="1.0" encoding="utf-8"?>
<!-- Generator: Adobe Illustrator 21.0.2, SVG Export Plug-In . SVG Version: 6.00 Build 0)  -->
<svg version="1.1" id="Capa_1" xmlns="http://www.w3.org/2000/svg" xmlns:xlink="http://www.w3.org/1999/xlink" x="0px" y="0px"
	 viewBox="0 0 400 300" style="enable-background:new 0 0 400 300;" xml:space="preserve">
<style type="text/css">
	.st0{fill:#FFDC0E;}
	.st1{fill:#F49807;}
	.st2{fill:url(#SVGID_1_);}
	.st3{fill:#FFDD00;}
</style>
<symbol  id="Isologo_2" viewBox="-161 -28.8 322.1 57.6">
	<path class="st0" d="M-49-13.2v21h13v5h-19v-26H-49z"/>
	<path class="st0" d="M-1-13.2V1c0,7.7-4.5,11.8-11.3,12S-25,9.4-25,1v-14.3h6V1c0,4.6,2.5,7,6.7,6.8C-8.4,7.6-7,4.9-7,1v-14.3H-1z"
		/>
	<path class="st0" d="M34.7,9.3c-2.7,2.6-6.2,3.9-9.9,3.8C15,13.1,11,6.7,11-0.3C11-7,15.3-14,24.8-14c3.6,0,7,1.4,9.5,4l-3.6,3.6
		c-1.6-1.4-3.7-2.2-5.9-2.1c-5.9,0-8.1,4.5-8.1,8.3s2.1,8,8.1,8c2.3,0,4.6-0.9,6.3-2.5L34.7,9.3z"/>
	<path class="st0" d="M47,12.8v-26h6v26H47z"/>
	<path class="st0" d="M77.7-13.2c8.9,0,12.8,6.1,12.8,12.8s-3.8,13.2-12.8,13.2H67v-26H77.7z M73,7.8h4.7c5.6,0,7.1-4.5,7.1-8.2
		s-1.8-7.8-7.1-7.8H73V7.8z"/>
	<path class="st0" d="M127-13.2V1c0,7.7-4.5,11.8-11.3,12S103,9.4,103,1v-14.3h6V1c0,4.6,2.5,7,6.7,6.8c3.9-0.3,5.3-3,5.3-6.8v-14.3
		H127z"/>
	<path class="st0" d="M156.2-7.2c-1.6-1.5-3.8-2.2-6-2.2c-2.5,0-4.6,1.1-4.6,2.8c0,2.4,2.3,2.8,5.6,3.1C156.2-3,161-1,161,5
		c0,5.8-5.3,8.3-10.9,8.3c-4.5,0-9.1-1.7-11.3-5.3l3.4-3.6c2,2.3,4.8,3.7,7.9,3.7c3.1,0,5.2-1.2,5.2-3.1c0-2.2-1.7-3.2-5.2-3.5
		c-5.5-0.5-10.3-1.9-10.3-8c0-5.1,4.9-7.9,10.2-7.9c4,0,7,0.9,9.6,4L156.2-7.2z"/>
	<path class="st1" d="M-158,15.8v10h6v3h-9v-13H-158z"/>
	<path class="st1" d="M-65-16.2v-10h-6v-2h9v12H-65z"/>
	<path class="st1" d="M-62,15.8v12h-9v-2h6v-10H-62z"/>
	<path class="st1" d="M-161-16.2v-12h9v2h-6v10H-161z"/>
	<polygon class="st0" points="-161,-16.2 -161,-28.8 -158,-26.3 -158,-16.2 	"/>
	<path class="st1" d="M-158,15.8v10h6v2h-9v-12H-158z"/>
	<polygon class="st1" points="-65,-16.2 -65,-26.2 -71,-26.2 -71,-28.2 -62,-28.2 -62,-16.2 	"/>
	<polygon class="st1" points="-62,15.8 -62,27.8 -71,27.8 -71,25.8 -65,25.8 -65,15.8 	"/>
	<polygon class="st0" points="-62,15.8 -62,27.8 -65,25.3 -65,15.8 	"/>
	<polygon class="st0" points="-158,15.8 -158,25.3 -161,27.8 -161,15.8 	"/>
	<polygon class="st0" points="-65,-16.2 -65,-26.3 -62,-28.8 -62,-16.2 	"/>
	<polygon class="st0" points="-116.3,-0.4 -94,-13.7 -94,12.5 	"/>
	<linearGradient id="SVGID_1_" gradientUnits="userSpaceOnUse" x1="-152.095" y1="-0.535" x2="-110.935" y2="-0.535">
		<stop  offset="0" style="stop-color:#F29100;stop-opacity:0.5"/>
		<stop  offset="1" style="stop-color:#F29100;stop-opacity:0.3"/>
	</linearGradient>
	<polygon class="st2" points="-111.2,-24 -137.2,-0.5 -110.9,22.9 -152.1,-0.4 	"/>
	<polygon class="st3" points="-94,-13.7 -116.3,-0.4 -94,12.5 	"/>
	<polygon class="st0" points="-94,-13.7 -94,12.5 -71.3,-0.6 	"/>
	<polygon class="st1" points="-152.1,-0.4 -137.1,-0.6 -104.2,-19.9 -111.2,-24 	"/>
	<polygon class="st0" points="-152.1,-0.4 -137.1,-0.6 -103.5,18.7 -110.9,22.9 	"/>
	<polygon class="st1" points="-116,-0.2 -94,-0.2 -94,-13.7 	"/>
	<polygon class="st1" points="-94,-0.4 -71.3,-0.6 -94,12.5 	"/>
	<polygon class="st3" points="-111.2,-24 -104.2,-19.9 -152.1,-0.4 	"/>
	<polygon class="st1" points="-110.9,22.9 -103.5,18.7 -152.1,-0.4 	"/>
	<path class="st1" d="M-48.9,7.8H-36v5h-18.6L-48.9,7.8z"/>
	<path class="st1" d="M-12.5,7.9C-8.6,7.6-7,4.9-7,1v-14.3h6V1c0,7.7-4.5,11.8-11.3,12"/>
	<path class="st1" d="M11-0.3C11-7,15.3-14,24.8-14c3.6,0,7,1.4,9.5,4l-3.6,3.6c-1.6-1.4-3.7-2.2-5.9-2.1c-5.9,0-8.1,4.5-8.1,8.3"/>
	<path class="st1" d="M47-0.2v-13h6v13H47z"/>
	<path class="st1" d="M77.7-13.2H67v25.3c2-1.7,4-3.5,6-5.3v-15h4.7C81-8.2,83-6.8,84-4.8c1.3-1.5,2.4-3,3.6-4.6
		C85.4-11.8,82.2-13.2,77.7-13.2z"/>
	<path class="st1" d="M115.7,7.9c3.9-0.3,5.3-3,5.3-6.8v-14.3h6V1c0,7.7-4.4,11.8-11.2,12"/>
	<path class="st1" d="M155.4,5c0-2.2-1.7-3.2-5.2-3.5c-5.5-0.5-10.3-1.9-10.3-8c0-5.1,4.9-7.9,10.2-7.9c4,0,7,0.9,9.6,4l-3.6,3.2
		c-1.6-1.5-3.8-2.2-6-2.2c-2.5,0-4.6,1.1-4.6,2.8c0,2.4,2.3,2.8,5.6,3.1C156.2-3,161-1,161,4.9"/>
</symbol>
<title>lucidus</title>
<g id="Capa_2">
	<g id="LUCIDUS">
		
			<use xlink:href="#Isologo_2"  width="322.1" height="57.6" x="-161" y="-28.8" transform="matrix(0.97 0 0 0.97 201.065 145.5112)" style="overflow:visible;"/>
	</g>
</g>
</svg>
