<?xml version="1.0" encoding="utf-8"?>
<!-- Generator: Adobe Illustrator 22.0.1, SVG Export Plug-In . SVG Version: 6.00 Build 0)  -->
<svg version="1.1" id="Capa_1" xmlns="http://www.w3.org/2000/svg" xmlns:xlink="http://www.w3.org/1999/xlink" x="0px" y="0px"
	 viewBox="0 0 100 100" style="enable-background:new 0 0 100 100;" xml:space="preserve">
<style type="text/css">
	.st0{opacity:5.000000e-02;}
	.st1{fill:none;stroke:#663399;stroke-width:1.8243;stroke-miterlimit:10;}
</style>
<g id="XMLID_120_">
	<g class="st0">
		<path class="st1" d="M96.1,50c0,9.2-2.4,17.4-7.1,24.6C84.3,81.7,78.5,87,71.7,90.4c-6.8,3.4-13.9,5.1-21.1,5.1
			c-7.3,0-14.4-1.8-21.2-5.4c-6.9-3.6-12.6-8.9-17.3-16c-4.7-7-7.1-15-7.1-23.9c0-13.3,4.6-24.3,13.9-33s19.9-13,31.8-13
			s22.5,4.3,31.7,12.9C91.6,25.7,96.1,36.7,96.1,50z"/>
		<path class="st1" d="M66.8,49.7c0-5.4-1.7-9.5-5.1-12.2c-3.4-2.7-7.1-4-11.1-4c-4,0-7.7,1.4-11.1,4.2c-3.4,2.8-5.1,6.8-5.1,12.2
			s1.8,9.4,5.3,12.2c3.5,2.7,7.1,4.1,10.8,4.1c3.6,0,7.3-1.4,10.9-4.2C65,59.2,66.8,55.1,66.8,49.7z"/>
	</g>
	<g>
		<g>
			<g>
				<path class="st1" d="M95.9,49.3c0,9.2-2.4,17.4-7.1,24.6C84,81,78.2,86.3,71.4,89.7c-6.8,3.4-13.9,5.1-21.1,5.1
					C43,94.7,35.9,93,29,89.3c-6.9-3.6-12.6-8.9-17.3-16c-4.7-7-7.1-15-7.1-23.9c0-13.3,4.6-24.3,13.9-33s19.9-13,31.8-13
					s22.5,4.3,31.7,12.9C91.3,25,95.9,36,95.9,49.3z"/>
				<path class="st1" d="M66.5,49c0-5.4-1.7-9.5-5.1-12.2c-3.4-2.7-7.1-4-11.1-4c-4,0-7.7,1.4-11.1,4.2c-3.4,2.8-5.1,6.8-5.1,12.2
					s1.8,9.4,5.3,12.2c3.5,2.7,7.1,4.1,10.8,4.1c3.6,0,7.3-1.4,10.9-4.2C64.7,58.5,66.5,54.4,66.5,49z"/>
			</g>
		</g>
	</g>
</g>
</svg>
