<svg xmlns="http://www.w3.org/2000/svg" viewBox="0 0 85.04 83.88"><defs><style>.cls-1{fill:#60388b;}</style></defs><title>o</title><g id="Capa_2" data-name="Capa 2"><g id="ISOLOGOTIPO"><g id="_Grupo_" data-name="&lt;Grupo&gt;"><path class="cls-1" d="M85,42.09a39.5,39.5,0,0,1-6.65,22.58A41.67,41.67,0,0,1,62.24,79.22a44.31,44.31,0,0,1-19.72,4.66,42.45,42.45,0,0,1-19.79-5A43.7,43.7,0,0,1,6.57,64.21,38.31,38.31,0,0,1,0,42.25Q0,23.88,13,11.94T42.68,0q16.7,0,29.53,11.86T85,42.09Zm-27.37-.3q0-7.5-4.79-11.18a16.75,16.75,0,0,0-10.36-3.68,16.19,16.19,0,0,0-10.35,3.84Q27.37,34.6,27.37,42t4.95,11.17a16.51,16.51,0,0,0,10,3.76,16.92,16.92,0,0,0,10.2-3.84Q57.67,49.29,57.67,41.79Z"/></g></g></g></svg>