<svg xmlns="http://www.w3.org/2000/svg" viewBox="0 0 281.66 76.86"><defs><style>.cls-1{fill:#62388e;}</style></defs><title>oivi</title><g id="Capa_2" data-name="Capa 2"><g id="Capa_3" data-name="Capa 3"><g id="_Grupo_" data-name="&lt;Grupo&gt;"><path class="cls-1" d="M78.12,38.57A36.13,36.13,0,0,1,72,59.26,38.23,38.23,0,0,1,57.17,72.59a40.56,40.56,0,0,1-18.1,4.27,39,39,0,0,1-18.18-4.55A40,40,0,0,1,6,58.84,35,35,0,0,1,0,38.71Q0,21.88,11.94,10.94T39.21,0Q54.54,0,66.34,10.87T78.12,38.57ZM53,38.29q0-6.87-4.4-10.24a15.38,15.38,0,0,0-9.51-3.37,14.94,14.94,0,0,0-9.52,3.51Q25.14,31.7,25.14,38.5t4.55,10.24a15.14,15.14,0,0,0,9.23,3.44,15.61,15.61,0,0,0,9.38-3.51Q53,45.16,53,38.29Z"/><path class="cls-1" d="M101.56,14a40.9,40.9,0,0,1,.21-4.84A12.91,12.91,0,0,1,103,5.47q2-3.64,11.08-3.65,6.81,0,9.66,2.39,2.41,2,2.55,6c.1.93.15,2.29.15,4.06V63.4a40.32,40.32,0,0,1-.22,4.84A11,11,0,0,1,124.85,72q-1.84,3.65-10.93,3.65T103,71.82a13.11,13.11,0,0,1-1.21-3.65,40.53,40.53,0,0,1-.21-4.91Z"/><path class="cls-1" d="M227.4,3.36q7.38,4.35,7.39,9.26,0,2.81-2.84,7.72l-29.4,49.79A12.86,12.86,0,0,1,198,74.41a11.79,11.79,0,0,1-6.18,1.9A12.11,12.11,0,0,1,186,74.83a11.47,11.47,0,0,1-3.91-3l-1.28-1.55L151.27,20.34c-1.89-3.09-2.84-5.61-2.84-7.58q0-5,7.39-9.4Q161.2.29,164.34.28a6.41,6.41,0,0,1,4.9,1.89A26.8,26.8,0,0,1,173,7.85L191.61,43.2,210.22,7.85Q211.78,5.2,212.56,4A9.48,9.48,0,0,1,215,1.61,7.83,7.83,0,0,1,219.59.42C221.48.42,224.09,1.4,227.4,3.36Z"/><path class="cls-1" d="M256.8,14A40.9,40.9,0,0,1,257,9.18a13.23,13.23,0,0,1,1.21-3.71q2-3.64,11.08-3.65c4.55,0,7.76.8,9.66,2.39q2.42,2,2.56,6c.09.93.14,2.29.14,4.06V63.4a38.3,38.3,0,0,1-.22,4.84A11.18,11.18,0,0,1,280.1,72q-1.86,3.65-10.94,3.65t-10.94-3.79A13.45,13.45,0,0,1,257,68.17a40.53,40.53,0,0,1-.21-4.91Z"/></g></g></g></svg>