<svg xmlns="http://www.w3.org/2000/svg" viewBox="0 0 88.4 87.75"><defs><style>.cls-1{fill:#639;}.cls-2{fill:none;stroke:#90c;stroke-width:7.99px;}.cls-2,.cls-3{stroke-miterlimit:10;}.cls-3{fill:#f36;stroke:#639;stroke-width:11.46px;}.cls-4{fill:#fff;}</style></defs><title>diseña</title><g id="Capa_2" data-name="Capa 2"><g id="_2" data-name="2"><g id="_Grupo_" data-name="&lt;Grupo&gt;"><g id="Cuerpo_Exterior" data-name="Cuerpo Exterior"><path class="cls-1" d="M8.4,44.4c0-2.13.84-4.1,1.18-6.13a34.94,34.94,0,0,1,1.32-6c.71-2,.8-4.26,1.83-6.07s3-3,4.31-4.63A35.71,35.71,0,0,1,21.32,17a36.15,36.15,0,0,1,5.25-3.28c1.79-1,3.26-2.76,5.24-3.49a36.46,36.46,0,0,1,6-1.87c2-.37,4.2.38,6.33.37s4.24-.47,6.27-.12a34.52,34.52,0,0,1,5.92,2c2,.71,4.25.85,6.06,1.88a36,36,0,0,1,5,3.88A36.93,36.93,0,0,1,72,20.77a36,36,0,0,1,3.69,5.15c1,1.79,1.19,4,1.92,6s2.18,3.72,2.55,5.8-.26,4.2-.25,6.33a36,36,0,0,1-.16,6.25,35.5,35.5,0,0,1-1.92,5.94c-.71,2-.83,4.26-1.86,6.06s-2.82,3.18-4.16,4.78a34.57,34.57,0,0,1-4.53,4.27,35.93,35.93,0,0,1-4.8,4,36.38,36.38,0,0,1-5.73,2.56,35,35,0,0,1-6.09,1.37,35.19,35.19,0,0,1-6.19.82,37.27,37.27,0,0,1-6.28-.27c-2.08-.36-3.94-1.48-5.89-2.18a34.68,34.68,0,0,1-5.49-2.82,35.23,35.23,0,0,1-5-3.53c-1.6-1.34-3.91-2-5.27-3.56a37.8,37.8,0,0,1-3.26-5.42,34.48,34.48,0,0,1-2.44-5.75,35.58,35.58,0,0,1-1.22-6.08C9.27,48.5,8.41,46.53,8.4,44.4Z"/></g><path id="concentro_dos" data-name="concentro dos" class="cls-2" d="M79.77,33.11c.22.69-2,2.46-5.14,3.72-1.73.71-3.95.92-5.95,1.68S64.75,40.15,63,40.85c-3,1.23-5.64,2.16-5.61,2.84s2.48,2.09,5.59,3.06c1.78.55,4.06.39,6.11,1s4.24.79,6,1.34c3.19,1,6,2.66,5.82,3.35s-3.29.36-6.6-.1c-1.85-.25-3.92-.78-6-1.13s-4.31,0-6.17-.23c-3.23-.45-5.48-1.06-5.8-.45s1.6,2,3.82,4.38c1.27,1.38,2,3.62,3.49,5.14s3.24,2.81,4.5,4.18c2.27,2.46,3.44,4.08,3,4.61s-2.53-.09-5.17-2.14c-1.47-1.14-2.51-3.26-4.16-4.62s-3.57-2.38-5-3.52c-2.58-2-4.92-3.84-5.51-3.46s-.36,3.38.36,6.56c.42,1.82,1.21,3.84,1.73,5.9s.81,4.19,1.22,6c.72,3.26,1.52,5.6.82,5.82s-2-1.9-3.28-5c-.71-1.73-1.8-3.6-2.55-5.6s-.77-4.28-1.48-6c-1.22-3-2.47-5-3.15-4.94s-1.63,2.1-2.6,5.21c-.55,1.78-1.17,3.83-1.75,5.88s-1.25,4.08-1.8,5.86c-1,3.2-1.61,4.92-2.3,4.77s-1.36-2.09-.9-5.41c.25-1.84,1.41-3.83,1.76-5.94s1.18-4.15,1.44-6c.45-3.23.22-6.21-.39-6.53s-3.2,1.19-5.59,3.4c-1.37,1.27-2.07,3.63-3.6,5.12s-3.36,2.68-4.73,3.94C22,70.4,19.82,72,19.3,71.52s1.34-2.43,3.4-5.07C23.84,65,24.61,62.87,26,61.22s2.46-3.48,3.61-4.95c2-2.58,3.34-3.94,3-4.53s-2.19,0-5.38.7c-1.82.41-4,.41-6.08.93S17,54.71,15.19,55.12c-3.26.72-5.58.78-5.79.09s1.8-1.76,4.89-3C16,51.48,18,50.76,20,50s3.72-2.18,5.46-2.88c3-1.22,5.82-1.67,5.79-2.35S28.69,43,25.59,42c-1.79-.56-4-.44-6.09-1s-4-1.58-5.78-2.13c-3.19-1-5.77-2.06-5.61-2.75s3-.68,6.26-.23c1.85.26,3.84,1.33,6,1.68s4.23.59,6.09.85c3.23.45,6,.36,6.36-.25S31.23,35.51,29,33.12c-1.27-1.37-2.93-2.73-4.41-4.26s-2.3-3.7-3.56-5.07c-2.27-2.46-4.17-3.8-3.68-4.32s2.67.35,5.31,2.4c1.47,1.15,3,2.62,4.69,4s3.32,2.66,4.79,3.81c2.57,2,4.38,3.61,5,3.24s.25-2.78-.48-6c-.42-1.82-1.58-3.72-2.11-5.79s-.27-4.33-.67-6.15c-.73-3.26-1.28-5.76-.59-6s2.07,2,3.33,5.08c.71,1.72,1,3.92,1.71,5.92s1.57,4,2.27,5.7c1.22,3,2.54,5.74,3.22,5.71s1.13-3,2.1-6.14c.56-1.78,1.71-3.66,2.29-5.71s.91-4.18,1.47-6c1-3.19,1.91-5,2.6-4.87s.53,2.17.07,5.49c-.25,1.84.18,4.07-.17,6.18s-.87,4.17-1.13,6c-.45,3.23-.95,5.31-.34,5.63s2.2-1.1,4.6-3.31c1.37-1.27,3.13-2.51,4.66-4s3.2-2.82,4.57-4.09c2.46-2.27,4-3.82,4.53-3.34S68,19.31,65.91,22c-1.14,1.47-1.91,3.58-3.27,5.24s-2.36,3.55-3.51,5c-2,2.57-3.38,3.93-3,4.52s2.47,1.11,5.66.38c1.82-.41,3.76-1.5,5.83-2s4.26-.48,6.08-.88C77,33.49,79.56,32.41,79.77,33.11Z"/><path id="Concentro" class="cls-3" d="M78.3,62c-.35.66-3.28.24-6.46-1.08-1.77-.75-3.57-2.14-5.58-3s-4.25-1.26-6-2c-3.1-1.32-5.16-2.67-5.63-2.15s-.12,3,1.44,6c.9,1.7,2.81,3.17,3.89,5.09s1.65,4.11,2.55,5.81c1.6,3.06,2.72,5.13,2.11,5.52s-1.93-1.56-4-4.31c-1.16-1.53-3.07-2.87-4.35-4.66s-2.77-3.41-3.93-4.95c-2-2.68-3.1-4.86-3.78-4.64s-.75,2.59-.88,6c-.07,1.93.08,4.12.06,6.32s0,4.42-.06,6.35c-.14,3.44-1,5.8-1.69,5.83s-1.68-2.26-2.11-5.68c-.24-1.91-.2-4.14-.42-6.33s-.86-4.32-1.1-6.23c-.42-3.33-.42-5.29-1.12-5.45S39.8,60,38,62.88c-1,1.63-3.25,2.84-4.37,4.73s-2,4-3,5.59c-1.85,2.9-2.89,4.42-3.56,4.08s-.37-2.22,1-5.4c.74-1.77,1.25-4,2.16-6s2.24-3.81,3-5.59c1.31-3.1,1.95-5.07,1.44-5.54s-2.83-.44-5.8,1.12c-1.71.89-3.65,2-5.57,3s-3.19,3.36-4.89,4.25c-3.06,1.61-5.62,2-6,1.35s1.65-2,4.39-4c1.54-1.16,3.36-2.37,5.15-3.65s3.41-2.81,4.95-4c2.68-2,5.13-4,4.92-4.69s-3.34-1.37-6.7-1.5c-1.93-.07-4.15.43-6.35.4s-4.41.24-6.34.16C9,47.1,5.76,46.62,5.73,45.88s3.12-1.39,6.55-1.82c1.91-.24,4.15,0,6.34-.22s4.3-1.09,6.21-1.33c3.34-.42,6-.54,6.19-1.24s-2.21-2-5.06-3.79c-1.63-1-3.16-2.75-5.05-3.88s-4.05-1.8-5.68-2.83c-2.9-1.85-4.57-3.27-4.22-3.94s2.18.57,5.36,1.9c1.77.74,3.87,1.39,5.88,2.3s4.22,1.35,6,2.1c3.1,1.32,4.94,1.79,5.42,1.28s-.44-2.16-2-5.14c-.89-1.7-2.11-3.53-3.19-5.45s-2.14-3.86-3-5.57C23.83,15.2,23,12,23.61,11.57s3.13,1.78,5.22,4.53C30,17.63,30.26,20.16,31.55,22s2.73,3.47,3.9,5c2,2.68,4.16,4.57,4.84,4.36s1-3,1.13-6.36c.08-1.93,0-4.13,0-6.33s.32-4.4.4-6.32c.14-3.44.14-6.55.88-6.58s1,3.06,1.46,6.48c.24,1.91,1.32,4,1.54,6.2s.19,4.39.43,6.31c.42,3.33.65,5.24,1.35,5.4s1.92-1.36,3.72-4.21c1-1.63,2.7-3.19,3.82-5.08s2.37-3.69,3.4-5.32c1.85-2.9,3.07-5.75,3.74-5.4s-.35,3.23-1.68,6.41c-.74,1.77-2,3.64-2.87,5.65s-1.53,4.14-2.28,5.91c-1.31,3.1-2.25,5.63-1.74,6.1s3.1-.4,6.07-2c1.71-.89,3.65-1.94,5.56-3s3.6-2.6,5.31-3.49c3-1.61,5.34-2.36,5.73-1.74s-1.25,2.37-4,4.46c-1.53,1.16-3.68,1.95-5.48,3.23s-3.34,2.89-4.88,4.05c-2.68,2-4.83,3.78-4.62,4.46s3,1.55,6.32,1.68c1.92.08,4.15-.89,6.35-.86s4.39.76,6.31.84c3.45.14,6.38,0,6.41.76s-2.94.53-6.37,1c-1.91.24-4,1.53-6.16,1.75s-4.33.8-6.24,1c-3.33.42-5.5.28-5.66,1S59.85,49.24,62.7,51c1.63,1,3.58,2,5.47,3.16s3.75,2.34,5.37,3.37C76.44,59.41,78.64,61.29,78.3,62Z"/><g id="Nucleos"><path class="cls-4" d="M31.67,74.64A33.15,33.15,0,0,1,26,71.92a32.86,32.86,0,0,1-4.84-4.08c-1.46-1.52-2.32-3.53-3.45-5.28A31.25,31.25,0,0,1,14.94,57c-.77-2-2-3.78-2.39-5.84s0-4.2,0-6.3-.45-4.27,0-6.34a33.76,33.76,0,0,1,5.59-11.26,32.39,32.39,0,0,1,3.67-5.13c1.51-1.46,3.68-2.09,5.43-3.21s3.15-3.06,5.09-3.83a33.07,33.07,0,0,1,6.2-1.44,33.32,33.32,0,0,1,6.3-.89c2.07,0,4,1.42,6.1,1.87s4.28.17,6.24,1a32.59,32.59,0,0,1,5.5,3.15,31.3,31.3,0,0,1,4.53,4.38,31.73,31.73,0,0,1,3.64,5.05c1.13,1.76,3,3.19,3.78,5.13a33.32,33.32,0,0,1,1.65,6.16,32.67,32.67,0,0,1,.16,6.34A31.94,31.94,0,0,1,76,52.17c-.43,2-1.75,3.8-2.6,5.75s-1.06,4.28-2.23,6-3.46,2.6-4.94,4a32.43,32.43,0,0,1-4.59,4.2,32.07,32.07,0,0,1-5.39,3.28,32.7,32.7,0,0,1-6.14,1.47,32.11,32.11,0,0,1-6.26.71c-2.07,0-4.05-1-6.12-1.48A32.34,32.34,0,0,1,31.67,74.64Z"/><path class="cls-1" d="M39.94,55.52a11.66,11.66,0,0,1-6.55-8.9,11.15,11.15,0,0,1,1-5.59,10.81,10.81,0,0,1,3.54-4.36,11.11,11.11,0,0,1,5.18-2.32,11.11,11.11,0,0,1,5.67.84A11,11,0,0,1,53,38.9a10.83,10.83,0,0,1,1.4,10.82,10.69,10.69,0,0,1-3.72,4.21,10.67,10.67,0,0,1-5.12,2.2A11,11,0,0,1,39.94,55.52Z"/></g></g></g></g></svg>