<svg xmlns="http://www.w3.org/2000/svg" viewBox="0 0 508.52 508.52"><defs><style>.cls-1{fill:#939;}</style></defs><title>v</title><g id="Capa_2" data-name="Capa 2"><g id="Capa_1-2" data-name="Capa 1"><path class="cls-1" d="M254.26,0C113.85,0,0,113.85,0,254.26S113.85,508.52,254.26,508.52,508.52,394.67,508.52,254.26,394.67,0,254.26,0Zm151,185.07C388.22,281.12,293,362.45,264.34,381s-54.8-7.44-64.3-27.14c-10.84-22.38-43.35-144-51.87-154.12s-34.07,10.08-34.07,10.08l-12.4-16.24s51.91-62,91.38-69.73c41.86-8.24,41.79,64.29,51.87,104.53,9.76,38.93,16.27,61.18,24.79,61.18s24.82-21.68,42.59-54.95-.77-62.74-35.63-41.83C290.68,109.17,422.33,89.06,405.29,185.07Z"/></g></g></svg>