<svg xmlns="http://www.w3.org/2000/svg" viewBox="0 0 980 981.09"><defs><style>.cls-1{fill:#363636;}.cls-2{fill:#2c2c2c;}.cls-3{fill:#4f4f4f;}.cls-4{fill:#101010;}.cls-5{fill:#545454;}.cls-6{fill:#fefefe;}.cls-7{fill:#939;}.cls-8{fill:#666;}.cls-9{fill:#131313;}.cls-10{fill:#4d4d4d;}.cls-11{fill:#0c0c0c;}.cls-12{fill:#2d2d2d;}.cls-13{fill:#1c1c1c;}.cls-14{fill:#2b2b2b;}.cls-15{fill:#929292;}.cls-16{fill:#787878;}.cls-17{fill:#7a7a7a;}</style></defs><title>www</title><g id="Capa_2" data-name="Capa 2"><g id="Capa_1-2" data-name="Capa 1"><path class="cls-1" d="M980.25,500.33v5c-.19-.26-.36-.37-.51-.32s0-.08,0-.12c0-1.4,0-2.82,0-4.22C979.92,500.69,980.09,500.58,980.25,500.33Z" transform="translate(-0.25 -0.25)"/><path class="cls-2" d="M980.25,477.33v5c-.17-.25-.34-.36-.52-.33,0-1.43,0-2.87,0-4.29,0,0,0,0,0-.07C979.9,477.7,980.07,477.59,980.25,477.33Z" transform="translate(-0.25 -0.25)"/><path class="cls-3" d="M980.25,471.33v6l-.49-.05C979.88,475.29,979.28,473.24,980.25,471.33Z" transform="translate(-0.25 -0.25)"/><path class="cls-2" d="M979.76,477.28l.49.05c-.18.26-.35.37-.51.31C979.75,477.52,979.76,477.4,979.76,477.28Z" transform="translate(-0.25 -0.25)"/><path class="cls-4" d="M980.25,482.33v18l-.52,0v-.62c0-5.64,0-11.28,0-16.92v-.51Z" transform="translate(-0.25 -0.25)"/><path class="cls-5" d="M980.25,511.33c-1-1.92-.38-4-.48-6l.48,0Z" transform="translate(-0.25 -0.25)"/><path class="cls-1" d="M980.25,505.33l-.48,0c0-.12,0-.24,0-.36C979.89,505,980.06,505.07,980.25,505.33Z" transform="translate(-0.25 -0.25)"/><path class="cls-2" d="M979.73,482c.18,0,.35.08.52.33h-.52Z" transform="translate(-0.25 -0.25)"/><path class="cls-1" d="M980.25,500.33c-.16.25-.33.36-.52.34v-.3Z" transform="translate(-0.25 -0.25)"/><path class="cls-3" d="M980.25,471.33c-1,1.91-.37,4-.49,5.95l-.38,0C979.64,475.26,978.28,473.05,980.25,471.33Z" transform="translate(-0.25 -0.25)"/><path class="cls-5" d="M979.77,505.37c.1,2-.48,4,.48,6-2-1.73-.64-3.94-.85-5.92a0,0,0,0,1,0,0Z" transform="translate(-0.25 -0.25)"/><path class="cls-1" d="M979.74,505c0,.12,0,.24,0,.36l-.36,0Q979.56,505.06,979.74,505Z" transform="translate(-0.25 -0.25)"/><path class="cls-2" d="M979.38,477.24l.38,0c0,.12,0,.24,0,.36S979.49,477.48,979.38,477.24Z" transform="translate(-0.25 -0.25)"/><path class="cls-1" d="M979.73,500.67c0,1.4,0,2.82,0,4.22,0,0,0,.08,0,.12s-.23.16-.33.39h0c0-1.66,0-3.32-.07-5A.71.71,0,0,0,979.73,500.67Z" transform="translate(-0.25 -0.25)"/><path class="cls-1" d="M979.73,500.37v.3a.71.71,0,0,1-.41-.25Z" transform="translate(-0.25 -0.25)"/><path class="cls-4" d="M979.32,500.42l0-18.14.44,0v.51c0,5.64,0,11.28,0,16.92v.62Z" transform="translate(-0.25 -0.25)"/><path class="cls-2" d="M979.73,482v.32l-.44,0A.71.71,0,0,1,979.73,482Z" transform="translate(-0.25 -0.25)"/><path class="cls-2" d="M979.73,477.71c0,1.42,0,2.86,0,4.29a.71.71,0,0,0-.44.28l.09-5c.11.24.23.38.36.4S979.73,477.69,979.73,477.71Z" transform="translate(-0.25 -0.25)"/><path class="cls-6" d="M490,177.33c182.91,1.45,313.61,149,313.35,313.45-.28,173.31-138,312.76-314.79,314.37C316.16,802.75,175.48,664.9,176.05,489,176.61,317.49,318.67,176,490,177.33Zm270.2,362.6c3.41-26.54,3.14-53.18,1.78-79.81-.75-14.81-2.82-29.45-8-43.51-1.12-3.05-2.51-4.27-6-4.26q-61.71.24-123.43,0c-4.12,0-4.54,1.38-4.27,4.84.82,10.46,1.6,20.93,1.94,31.41,1.24,38.8,1.38,77.6-2,116.33-.35,4.09.91,4.86,4.73,4.83,20.32-.19,40.64-.09,61-.09,20.83,0,41.65-.06,62.47.07,3,0,4.4-.87,5.41-3.7A125.78,125.78,0,0,0,760.23,539.93ZM735,614.22c2.63-5.14,2.43-5.57-2.6-5.65-35.15-.55-70.3-.74-105.44,0-11.38.25-11.45.52-13.77,11.83-6.82,33.27-15.77,65.89-29,97.26a219.37,219.37,0,0,1-19.09,36.64c2,.39,3.38-.3,4.78-.74C606.68,742.08,640,724.29,669,698.71A284.64,284.64,0,0,0,735,614.22Zm-6.24-240.71c9.21-.27,9.27-.28,4.84-8.5C701.69,305.84,655.07,262.8,593,236.79a191.4,191.4,0,0,0-28.8-9.8c8.43,12.19,14.59,24.78,20.06,37.73C598,297.16,606.86,331,614,365.41c1.59,7.63,1.76,7.64,9.78,8C658.76,374.76,693.74,374.52,728.73,373.51ZM584.56,502.83a626.68,626.68,0,0,0-4.09-85.75c-.47-3.9-2.08-4.73-5.74-4.71-28.15.15-56.3.09-84.45.09h-82c-9.09,0-9.18,0-9.95,9-2.83,33-5.55,66.06-3,99.26,1.1,14.6,1.8,29.23,3.59,43.78.52,4.3,2.21,5.26,6.36,5.24q82.7-.22,165.41-.1c9.38,0,9.37,0,10.63-9.51C583.84,541.13,584.23,522,584.56,502.83ZM570.18,374.3c2.93,0,4.57-.14,3.88-3.92-6.27-34.25-14.8-67.81-29.86-99.4-7.47-15.67-16.12-30.63-29.17-42.48-16.7-15.17-34.11-15.06-50.65.18-8,7.4-14.31,16.18-20,25.44-14.43,23.63-23.13,49.55-30.08,76.14-3.11,11.89-6.4,23.74-8.5,35.87-1.41,8.12-1.41,8.12,6.48,8.12h77.43C516.56,374.25,543.37,374.22,570.18,374.3Zm3.07,241.26c1.39-7.35,1-7.41-6.49-7.41h-77q-40.25,0-80.49,0c-2.41,0-4.56-.46-3.84,3.47,6.51,35.25,15.05,69.88,31.06,102.2,7.86,15.87,17,31,31,42.35,14.85,12,29.44,12,44.44,0,11.83-9.44,20-21.78,27.12-34.85C557.12,688.25,566.32,652.25,573.25,615.56ZM414.33,227.71c-1.92-1-3.22.14-4.56.59-17.66,5.91-34.93,12.75-51.16,22-49.38,28.09-88.45,66.17-113.81,117.53-2.75,5.57-2.73,5.57,3.54,5.74,36.63,1,73.27-.35,109.9-.06,5,0,6.26-1.77,7.06-6.09,6.51-35.38,16.07-69.88,30-103.13A272.42,272.42,0,0,1,414.33,227.71ZM412.1,753.17c-.49-3.24-2.08-5.95-3.66-8.61-12.67-21.47-21.05-44.7-28.27-68.42a599.12,599.12,0,0,1-14.93-62c-.75-3.94-2.15-5.4-6.37-5.27-9.14.26-18.31-.23-27.47-.26-28-.06-56,0-83.94-.13-4.22,0-5.52,1.14-3.23,5.07,3.75,6.47,7.22,13.09,11.1,19.47,35.06,57.59,85.16,96.42,148.4,118.79C406.33,752.75,409,754,412.1,753.17Zm-57-183.43c3.44,0,4.57-.65,4.24-4.32-.92-10.27-1.77-20.58-2-30.89-1-39.15-1.4-78.29,1.9-117.37.3-3.51-.2-4.83-4.28-4.81q-61.73.25-123.46,0c-3.1,0-4.72.75-5.8,3.82a129,129,0,0,0-6.44,26.6c-3.38,26.71-3.07,53.52-1.66,80.32.74,14.14,2.75,28.12,7.56,41.59,1.3,3.66,2.87,5.13,7,5.07,20.32-.26,40.65-.12,61-.12C313.78,569.66,334.44,569.58,355.1,569.74Z" transform="translate(-0.25 -0.25)"/><path class="cls-7" d="M762,460.12c1.36,26.63,1.63,53.27-1.78,79.81a125.78,125.78,0,0,1-6.38,26.1c-1,2.83-2.42,3.72-5.41,3.7-20.82-.13-41.64-.07-62.47-.07-20.32,0-40.64-.1-61,.09-3.82,0-5.08-.74-4.73-4.83,3.33-38.73,3.19-77.53,2-116.33-.34-10.48-1.12-20.95-1.94-31.41-.27-3.46.15-4.85,4.27-4.84q61.71.29,123.43,0c3.52,0,4.91,1.21,6,4.26C759.19,430.67,761.26,445.31,762,460.12Z" transform="translate(-0.25 -0.25)"/><path class="cls-7" d="M732.37,608.57c5,.08,5.23.51,2.6,5.65a284.64,284.64,0,0,1-66,84.49c-29,25.58-62.33,43.37-99.12,54.89-1.4.44-2.75,1.13-4.78.74A219.37,219.37,0,0,0,584.2,717.7c13.19-31.37,22.14-64,29-97.26,2.32-11.31,2.39-11.58,13.77-11.83C662.07,607.83,697.22,608,732.37,608.57Z" transform="translate(-0.25 -0.25)"/><path class="cls-7" d="M733.57,365c4.43,8.22,4.37,8.23-4.84,8.5-35,1-70,1.25-105-.14-8-.32-8.19-.33-9.78-8-7.13-34.39-16-68.25-29.76-100.69-5.47-13-11.63-25.54-20.06-37.73a191.4,191.4,0,0,1,28.8,9.8C655.07,262.8,701.69,305.84,733.57,365Z" transform="translate(-0.25 -0.25)"/><path class="cls-7" d="M580.47,417.08a626.68,626.68,0,0,1,4.09,85.75c-.33,19.15-.72,38.3-3.23,57.32-1.26,9.51-1.25,9.51-10.63,9.51q-82.71,0-165.41.1c-4.15,0-5.84-.94-6.36-5.24-1.79-14.55-2.49-29.18-3.59-43.78-2.52-33.2.2-66.23,3-99.26.77-9,.86-9,9.95-9h82c28.15,0,56.3.06,84.45-.09C578.39,412.35,580,413.18,580.47,417.08Z" transform="translate(-0.25 -0.25)"/><path class="cls-7" d="M574.06,370.38c.69,3.78-.95,3.93-3.88,3.92-26.81-.08-53.62-.05-80.43-.05H412.32c-7.89,0-7.89,0-6.48-8.12,2.1-12.13,5.39-24,8.5-35.87,7-26.59,15.65-52.51,30.08-76.14,5.65-9.26,11.93-18,20-25.44,16.54-15.24,33.95-15.35,50.65-.18,13.05,11.85,21.7,26.81,29.17,42.48C559.26,302.57,567.79,336.13,574.06,370.38Z" transform="translate(-0.25 -0.25)"/><path class="cls-7" d="M566.76,608.15c7.54,0,7.88.06,6.49,7.41-6.93,36.69-16.13,72.69-34.16,105.79C532,734.42,523.8,746.76,512,756.2c-15,12-29.59,12-44.44,0-14.07-11.37-23.17-26.48-31-42.35-16-32.32-24.55-66.95-31.06-102.2-.72-3.93,1.43-3.48,3.84-3.47q40.25,0,80.49,0Z" transform="translate(-0.25 -0.25)"/><path class="cls-8" d="M514.25,981.33h-6A7.62,7.62,0,0,1,514.25,981.33Z" transform="translate(-0.25 -0.25)"/><path class="cls-8" d="M514.25,981.33a7.62,7.62,0,0,0-6,0C510.25,980,512.25,979.63,514.25,981.33Z" transform="translate(-0.25 -0.25)"/><path class="cls-9" d="M505.25,981.33h-9A17.17,17.17,0,0,1,505.25,981.33Z" transform="translate(-0.25 -0.25)"/><path class="cls-9" d="M505.25,981.33a17.17,17.17,0,0,0-9,0A9,9,0,0,1,505.25,981.33Z" transform="translate(-0.25 -0.25)"/><path class="cls-2" d="M477.6,980.84c1.88.15,3.84-.53,5.65.49h-6q.17,0,.33-.33A.18.18,0,0,0,477.6,980.84Z" transform="translate(-0.25 -0.25)"/><path class="cls-2" d="M477.26,980.81a1.87,1.87,0,0,0,.34,0,.18.18,0,0,1,0,.16q-.16.33-.33.33a4.53,4.53,0,0,0,0-.52Z" transform="translate(-0.25 -0.25)"/><path class="cls-2" d="M477.18,980.44c2.05.08,4.26-.86,6.07.89-1.81-1-3.77-.34-5.65-.49C477.59,980.7,477.45,980.56,477.18,980.44Z" transform="translate(-0.25 -0.25)"/><path class="cls-2" d="M477.18,980.44c.27.12.41.26.42.4a1.87,1.87,0,0,1-.34,0h0A2.33,2.33,0,0,0,477.18,980.44Z" transform="translate(-0.25 -0.25)"/><path class="cls-7" d="M.25,517.33c2.07-2.81.55-6,.94-9,0-2.67,0-5.34,0-8-.34-2.34.93-4.9-1-7v-4c2.14-5.92.5-12.05,1-18.06-.36-2,1-4.22-1-5.94v-6c1.66-1.06.86-2.63.85-4,.12-.83.41-1.74-.85-2v-6c1.29-8.35,1-16.82,2.27-25.2C9.16,380,20.18,339.07,36.71,299.69a479.12,479.12,0,0,1,75.78-124c8.92-10.58,18.18-20.89,28-30.59,31.43-31.23,66-58.54,104.57-80.59A490.61,490.61,0,0,1,438.52,1.89C462.94-.62,487.39.37,511.85.82c15.83.29,31.6,1,47.26,3.26A509.3,509.3,0,0,1,714.17,53.35,475.58,475.58,0,0,1,808,116.62c28.59,24.67,54.71,51.73,77.13,82.14,29.77,40.38,52.49,84.54,69.13,131.85a487.13,487.13,0,0,1,24.07,104c1.11,9.21.68,18.53,1.92,27.74v9c-2,1.72-.61,3.93-.87,5.91l-.09,5,0,18.14c0,1.66,0,3.32.07,5h0a0,0,0,0,0,0,0c.21,2-1.15,4.19.85,5.92v9c-1.34,7.19-.82,14.51-1.54,21.75a472.23,472.23,0,0,1-17.41,88.58c-15.07,50.52-38.35,97.17-67.65,140.86a392.08,392.08,0,0,1-44.24,54c-21.07,21.79-42.82,42.83-67.2,61-27.24,20.27-56.62,36.8-87.37,51.1A483.79,483.79,0,0,1,578.1,975c-18.18,3.36-36.46,5.81-55,5.86-1,0-2-.28-2.85.5h-6c-2-1.7-4-1.36-6,0h-3a9,9,0,0,0-9,0h-13c-1.81-1.75-4-.81-6.07-.89-2,.28-4.21-1.12-5.93.89h-10c-7.69-1.39-15.51-.87-23.26-1.56a451.73,451.73,0,0,1-71.76-12.67c-34.38-8.76-67.21-21.74-98.77-37.8A491,491,0,0,1,160.9,856.51,483.66,483.66,0,0,1,64.5,737.36C32.25,681.27,11.2,621.23,2.18,557.07c-1.06-7.54-.66-15.21-1.93-22.74v-7c1.74-1.33,1.38-2.67,0-4Zm803.13-26.55c.26-164.46-130.44-312-313.35-313.45C318.67,176,176.61,317.49,176.05,489c-.57,175.87,140.11,313.72,312.54,316.12C665.34,803.54,803.1,664.09,803.38,490.78Z" transform="translate(-0.25 -0.25)"/><path class="cls-10" d="M477.22,980.81a4.53,4.53,0,0,1,0,.52h-6C473.16,980.26,475.23,981.07,477.22,980.81Z" transform="translate(-0.25 -0.25)"/><path class="cls-10" d="M477.18,980.44a2.33,2.33,0,0,1,0,.37c-2,.26-4.06-.55-6,.52C473,979.32,475.2,980.72,477.18,980.44Z" transform="translate(-0.25 -0.25)"/><path class="cls-7" d="M409.77,228.3c1.34-.45,2.64-1.55,4.56-.59a272.42,272.42,0,0,0-19.07,36.56c-13.89,33.25-23.45,67.75-30,103.13-.8,4.32-2,6.13-7.06,6.09-36.63-.29-73.27,1-109.9.06-6.27-.17-6.29-.17-3.54-5.74,25.36-51.36,64.43-89.44,113.81-117.53C374.84,241.05,392.11,234.21,409.77,228.3Z" transform="translate(-0.25 -0.25)"/><path class="cls-7" d="M408.44,744.56c1.58,2.66,3.17,5.37,3.66,8.61-3.14.87-5.77-.42-8.37-1.34-63.24-22.37-113.34-61.2-148.4-118.79-3.88-6.38-7.35-13-11.1-19.47-2.29-3.93-1-5.08,3.23-5.07,28,.12,56,.07,83.94.13,9.16,0,18.33.52,27.47.26,4.22-.13,5.62,1.33,6.37,5.27a599.12,599.12,0,0,0,14.93,62C387.39,699.86,395.77,723.09,408.44,744.56Z" transform="translate(-0.25 -0.25)"/><path class="cls-7" d="M359.34,565.42c.33,3.67-.8,4.35-4.24,4.32-20.66-.16-41.32-.08-62-.08-20.33,0-40.66-.14-61,.12-4.15.06-5.72-1.41-7-5.07-4.81-13.47-6.82-27.45-7.56-41.59-1.41-26.8-1.72-53.61,1.66-80.32a129,129,0,0,1,6.44-26.6c1.08-3.07,2.7-3.83,5.8-3.82q61.72.17,123.46,0c4.08,0,4.58,1.3,4.28,4.81-3.3,39.08-2.92,78.22-1.9,117.37C357.57,544.84,358.42,555.15,359.34,565.42Z" transform="translate(-0.25 -0.25)"/><path class="cls-11" d="M1.23,500.35H.75a2.06,2.06,0,0,1,0-.35C.9,500,1.06,500.11,1.23,500.35Z" transform="translate(-0.25 -0.25)"/><path class="cls-12" d="M1.21,471.27a3.88,3.88,0,0,1-.48,0c0-.11,0-.22,0-.33A.67.67,0,0,1,1.21,471.27Z" transform="translate(-0.25 -0.25)"/><path class="cls-13" d="M1.19,508.36c-.14-.22-.28-.34-.42-.35,0-2.45,0-4.9,0-7.35,0-.11,0-.21,0-.32h.48C1.22,503,1.2,505.69,1.19,508.36Z" transform="translate(-0.25 -0.25)"/><path class="cls-11" d="M.25,493.33c1.91,2.12.64,4.68,1,7-.17-.24-.33-.36-.5-.36C.65,497.77,1.24,495.49.25,493.33Z" transform="translate(-0.25 -0.25)"/><path class="cls-12" d="M.25,465.33c2,1.72.6,4,1,5.94A.67.67,0,0,0,.72,471C.71,469.09,1.14,467.16.25,465.33Z" transform="translate(-0.25 -0.25)"/><path class="cls-14" d="M.25,517.33c1.09-2.94.25-6,.51-9a3.12,3.12,0,0,1,.43,0C.8,511.35,2.32,514.52.25,517.33Z" transform="translate(-0.25 -0.25)"/><path class="cls-13" d="M1.19,508.36a3.12,3.12,0,0,0-.43,0s0-.07,0-.11V508C.91,508,1.05,508.14,1.19,508.36Z" transform="translate(-0.25 -0.25)"/><path class="cls-15" d="M1.1,455.3A.78.78,0,0,0,.77,455a2,2,0,0,0-.52-1.68C1.51,453.56,1.22,454.47,1.1,455.3Z" transform="translate(-0.25 -0.25)"/><path class="cls-16" d="M1.1,455.3c0,1.4.81,3-.85,4,1-1.1.33-2.43.52-3.64,0-.13,0-.25,0-.38Z" transform="translate(-0.25 -0.25)"/><path class="cls-11" d="M.25,489.33c1.13-5.76.22-11.59.52-17.38,0-.21,0-.42,0-.64a3.88,3.88,0,0,0,.48,0C.75,477.28,2.39,483.41.25,489.33Z" transform="translate(-0.25 -0.25)"/><path class="cls-15" d="M.77,455a.78.78,0,0,1,.33.29H.76C.76,455.21.76,455.11.77,455Z" transform="translate(-0.25 -0.25)"/><path class="cls-13" d="M.77,508v.23s0,.07,0,.11a4.35,4.35,0,0,0-.51,0C.43,508.08.6,508,.77,508Z" transform="translate(-0.25 -0.25)"/><path class="cls-13" d="M.77,500.66c0,2.45,0,4.9,0,7.35-.17,0-.34.07-.52.32v-8h.5C.75,500.45.76,500.55.77,500.66Z" transform="translate(-0.25 -0.25)"/><path class="cls-11" d="M.77,472c-.3,5.79.61,11.62-.52,17.38v-18a3.85,3.85,0,0,0,.48,0C.73,471.53.75,471.74.77,472Z" transform="translate(-0.25 -0.25)"/><path class="cls-15" d="M.25,455.33c.16-.28.34-.38.52-.32,0,.1,0,.2,0,.3Z" transform="translate(-0.25 -0.25)"/><path class="cls-11" d="M.75,500.34H.25c.17-.23.32-.34.48-.34A2.06,2.06,0,0,0,.75,500.34Z" transform="translate(-0.25 -0.25)"/><path class="cls-11" d="M.25,493.33c1,2.16.4,4.44.48,6.66-.16,0-.31.11-.48.34Z" transform="translate(-0.25 -0.25)"/><path class="cls-12" d="M.25,465.33c.89,1.83.46,3.76.47,5.65a.68.68,0,0,0-.47.35Z" transform="translate(-0.25 -0.25)"/><path class="cls-14" d="M.76,508.35c-.26,3,.58,6-.51,9v-9A4.35,4.35,0,0,1,.76,508.35Z" transform="translate(-0.25 -0.25)"/><path class="cls-12" d="M.72,471c0,.11,0,.22,0,.33a3.85,3.85,0,0,1-.48,0A.68.68,0,0,1,.72,471Z" transform="translate(-0.25 -0.25)"/><path class="cls-17" d="M.25,523.33a3.63,3.63,0,0,1,0,4Z" transform="translate(-0.25 -0.25)"/><path class="cls-17" d="M.25,523.33c1.38,1.33,1.74,2.67,0,4A3.63,3.63,0,0,0,.25,523.33Z" transform="translate(-0.25 -0.25)"/><path class="cls-15" d="M.77,455c-.18-.06-.36,0-.52.32v-2A2,2,0,0,1,.77,455Z" transform="translate(-0.25 -0.25)"/><path class="cls-16" d="M.25,455.33l.51,0c0,.13,0,.25,0,.38-.19,1.21.43,2.54-.52,3.64Z" transform="translate(-0.25 -0.25)"/></g></g></svg>